<svg width="275" height="65" viewBox="0 0 275 65" fill="none" xmlns="http://www.w3.org/2000/svg">
<path d="M167.963 17.9034L167.962 17.9043L167.965 17.9034L167.973 17.899L167.963 17.9034Z" fill="#65A854"/>
<path d="M5.03968 7.68372L5.10467 7.96177L5.17624 7.68372L7.91463 1.00084H9.1334V8.8457H8.3389V1.87378L5.39896 8.8457H4.72933L1.78427 1.87378V8.8457H1V1.00084H2.20855L5.03968 7.68372Z" fill="#98714B"/>
<path d="M5.03968 7.68372L5.10467 7.96177L5.17624 7.68372L7.91463 1.00084H9.1334V8.8457H8.3389V1.87378L5.39896 8.8457H4.72933L1.78427 1.87378V8.8457H1V1.00084H2.20855L5.03968 7.68372Z" stroke="#98714B" stroke-width="0.533332" stroke-miterlimit="10" stroke-linecap="round" stroke-linejoin="round"/>
<path d="M11.7322 5.45767H16.1487C16.091 5.12693 15.9552 4.82327 15.7413 4.54667C15.5309 4.27008 15.2673 4.05275 14.9497 3.8947C14.6328 3.73665 14.2998 3.65762 13.9514 3.65762C13.5965 3.65762 13.2657 3.7308 12.959 3.8786C12.6523 4.02568 12.3924 4.23788 12.1784 4.51374C11.9645 4.78668 11.8155 5.10132 11.7322 5.45767ZM16.9491 6.17257H11.7052C11.7454 6.48502 11.8067 6.73088 11.89 6.9087C12.0024 7.16334 12.1653 7.39237 12.38 7.59579C12.5932 7.79628 12.8386 7.95214 13.1139 8.06263C13.3899 8.17385 13.6761 8.22947 13.9734 8.22947C14.6043 8.22947 15.1461 8.01288 15.5996 7.57969C15.7705 7.41285 15.9151 7.20505 16.0348 6.95772H16.8614C16.7169 7.29285 16.5861 7.54383 16.47 7.71067C16.3539 7.87823 16.1904 8.05093 15.98 8.22947C15.7084 8.46508 15.3929 8.64875 15.0337 8.78046C14.6751 8.91071 14.3144 8.97656 13.9514 8.97656C13.4045 8.97656 12.8999 8.84266 12.4391 8.57557C11.9791 8.30849 11.6132 7.9419 11.343 7.47652C11.0736 7.01113 10.9385 6.50185 10.9385 5.94867C10.9385 5.39914 11.0721 4.89205 11.3408 4.42666C11.6088 3.96129 11.9747 3.59176 12.4369 3.31956C12.8992 3.04663 13.4001 2.91052 13.9405 2.91052C14.3976 2.91052 14.8306 3.00784 15.241 3.20468C15.6507 3.40078 16.0005 3.67884 16.2904 4.03958C16.5664 4.3813 16.7563 4.77204 16.8614 5.21255C16.898 5.37572 16.9272 5.69622 16.9491 6.17257Z" fill="#98714B"/>
<path d="M11.7322 5.45767H16.1487C16.091 5.12693 15.9552 4.82327 15.7413 4.54667C15.5309 4.27008 15.2673 4.05275 14.9497 3.8947C14.6328 3.73665 14.2998 3.65762 13.9514 3.65762C13.5965 3.65762 13.2657 3.7308 12.959 3.8786C12.6523 4.02568 12.3924 4.23788 12.1784 4.51374C11.9645 4.78668 11.8155 5.10132 11.7322 5.45767ZM16.9491 6.17257H11.7052C11.7454 6.48502 11.8067 6.73088 11.89 6.9087C12.0024 7.16334 12.1653 7.39237 12.38 7.59579C12.5932 7.79628 12.8386 7.95214 13.1139 8.06263C13.3899 8.17385 13.6761 8.22947 13.9734 8.22947C14.6043 8.22947 15.1461 8.01288 15.5996 7.57969C15.7705 7.41285 15.9151 7.20505 16.0348 6.95772H16.8614C16.7169 7.29285 16.5861 7.54383 16.47 7.71067C16.3539 7.87823 16.1904 8.05093 15.98 8.22947C15.7084 8.46508 15.3929 8.64875 15.0337 8.78046C14.6751 8.91071 14.3144 8.97656 13.9514 8.97656C13.4045 8.97656 12.8999 8.84266 12.4391 8.57557C11.9791 8.30849 11.6132 7.9419 11.343 7.47652C11.0736 7.01113 10.9385 6.50185 10.9385 5.94867C10.9385 5.39914 11.0721 4.89205 11.3408 4.42666C11.6088 3.96129 11.9747 3.59176 12.4369 3.31956C12.8992 3.04663 13.4001 2.91052 13.9405 2.91052C14.3976 2.91052 14.8306 3.00784 15.241 3.20468C15.6507 3.40078 16.0005 3.67884 16.2904 4.03958C16.5664 4.3813 16.7563 4.77204 16.8614 5.21255C16.898 5.37572 16.9272 5.69622 16.9491 6.17257Z" stroke="#98714B" stroke-width="0.533332" stroke-miterlimit="10" stroke-linecap="round" stroke-linejoin="round"/>
<path d="M22.3568 5.83976L24.7791 3.03577H25.705L23.2821 5.81781L25.8685 8.8457H24.9105L22.3568 5.83976ZM22.324 8.8457H21.5397V3.03577H22.324V8.8457ZM21.5127 5.83976L18.9598 8.8457H18.001L20.5875 5.81781L18.1645 3.03577H19.0898L21.5127 5.83976Z" fill="#98714B"/>
<path d="M22.3568 5.83976L24.7791 3.03577H25.705L23.2821 5.81781L25.8685 8.8457H24.9105L22.3568 5.83976ZM22.324 8.8457H21.5397V3.03577H22.324V8.8457ZM21.5127 5.83976L18.9598 8.8457H18.001L20.5875 5.81781L18.1645 3.03577H19.0898L21.5127 5.83976Z" stroke="#98714B" stroke-width="0.533332" stroke-miterlimit="10" stroke-linecap="round" stroke-linejoin="round"/>
<path d="M31.0374 8.14158L29.5514 4.21951L29.5295 4.02853L29.5076 4.21951L28.0266 8.14158H31.0374ZM31.7289 8.84551H27.346V10.1875H26.6436V8.14158H27.2044L29.2082 3.04655H29.8559L31.8648 8.14158H32.4424V10.1875H31.7289V8.84551Z" fill="#98714B"/>
<path d="M31.0374 8.14158L29.5514 4.21951L29.5295 4.02853L29.5076 4.21951L28.0266 8.14158H31.0374ZM31.7289 8.84551H27.346V10.1875H26.6436V8.14158H27.2044L29.2082 3.04655H29.8559L31.8648 8.14158H32.4424V10.1875H31.7289V8.84551Z" stroke="#98714B" stroke-width="0.533332" stroke-miterlimit="10" stroke-linecap="round" stroke-linejoin="round"/>
<path d="M37.8828 3.036H38.716L35.362 10.8809H34.5347L35.4489 8.66591L33.2275 3.036H34.0659L35.9177 7.67296L37.8828 3.036Z" fill="#98714B"/>
<path d="M37.8828 3.036H38.716L35.362 10.8809H34.5347L35.4489 8.66591L33.2275 3.036H34.0659L35.9177 7.67296L37.8828 3.036Z" stroke="#98714B" stroke-width="0.533332" stroke-miterlimit="10" stroke-linecap="round" stroke-linejoin="round"/>
<path d="M40.8146 5.51267H44.1576V3.03577H44.9521V8.8457H44.1576V6.21586H40.8146V8.8457H40.0361V3.03577H40.8146V5.51267Z" fill="#98714B"/>
<path d="M40.8146 5.51267H44.1576V3.03577H44.9521V8.8457H44.1576V6.21586H40.8146V8.8457H40.0361V3.03577H40.8146V5.51267Z" stroke="#98714B" stroke-width="0.533332" stroke-miterlimit="10" stroke-linecap="round" stroke-linejoin="round"/>
<path d="M49.7609 3.65762C49.3256 3.65762 48.9262 3.76079 48.5633 3.96567C48.2003 4.17129 47.9155 4.45082 47.7082 4.80351C47.5015 5.1562 47.3985 5.54183 47.3985 5.95964C47.3985 6.36722 47.5037 6.74479 47.714 7.09163C47.9243 7.4392 48.2084 7.71579 48.5662 7.92141C48.9233 8.12629 49.311 8.22947 49.7287 8.22947C50.1274 8.22947 50.5006 8.12629 50.8475 7.92141C51.1936 7.71579 51.4689 7.4392 51.6719 7.09163C51.8756 6.74479 51.9771 6.36722 51.9771 5.95964C51.9771 5.5528 51.8771 5.17084 51.6777 4.81448C51.4776 4.45813 51.2075 4.17569 50.8664 3.9686C50.5247 3.76152 50.1566 3.65762 49.7609 3.65762ZM52.7388 3.03565V8.84046H51.9771V7.74945C51.8355 7.99312 51.6755 8.19874 51.4974 8.36557C51.0227 8.77314 50.4363 8.97656 49.7389 8.97656C49.2745 8.97656 48.8028 8.86095 48.3237 8.63045C47.8447 8.39923 47.465 8.10581 47.186 7.74945C47.0115 7.52042 46.8728 7.24309 46.7691 6.91747C46.6661 6.59186 46.6143 6.2655 46.6143 5.93842C46.6143 5.39255 46.753 4.88692 47.0305 4.42155C47.3087 3.95617 47.687 3.58884 48.166 3.31956C48.6414 3.04662 49.1584 2.91052 49.717 2.91052C50.0654 2.91052 50.3954 2.96467 50.7058 3.07443C51.0161 3.18346 51.2834 3.34151 51.509 3.54859C51.6828 3.70152 51.8391 3.89982 51.9771 4.14349V3.03053L52.7388 3.03565Z" fill="#98714B"/>
<path d="M49.7609 3.65762C49.3256 3.65762 48.9262 3.76079 48.5633 3.96568C48.2003 4.17129 47.9155 4.45082 47.7082 4.80351C47.5015 5.1562 47.3985 5.54183 47.3985 5.95964C47.3985 6.36722 47.5037 6.74479 47.714 7.09163C47.9243 7.4392 48.2084 7.71579 48.5662 7.92141C48.9233 8.12629 49.311 8.22947 49.7287 8.22947C50.1274 8.22947 50.5006 8.12629 50.8475 7.92141C51.1936 7.71579 51.4689 7.4392 51.6719 7.09163C51.8756 6.74479 51.9771 6.36722 51.9771 5.95964C51.9771 5.5528 51.8771 5.17084 51.6777 4.81448C51.4776 4.45813 51.2075 4.17569 50.8664 3.9686C50.5247 3.76152 50.1566 3.65762 49.7609 3.65762ZM52.7388 3.03565V8.84046H51.9771V7.74945C51.8355 7.99312 51.6755 8.19874 51.4974 8.36557C51.0227 8.77314 50.4363 8.97656 49.7389 8.97656C49.2745 8.97656 48.8028 8.86095 48.3237 8.63045C47.8447 8.39923 47.465 8.10581 47.186 7.74945C47.0115 7.52042 46.8728 7.24309 46.7691 6.91747C46.6661 6.59186 46.6143 6.2655 46.6143 5.93842C46.6143 5.39255 46.753 4.88692 47.0305 4.42154C47.3087 3.95617 47.687 3.58884 48.166 3.31956C48.6414 3.04662 49.1584 2.91052 49.717 2.91052C50.0654 2.91052 50.3954 2.96467 50.7058 3.07443C51.0161 3.18346 51.2834 3.34151 51.509 3.54859C51.6828 3.70152 51.8391 3.89982 51.9771 4.14349V3.03053L52.7388 3.03565Z" stroke="#98714B" stroke-width="0.533332" stroke-miterlimit="10" stroke-linecap="round" stroke-linejoin="round"/>
<path d="M57.6307 8.2298C57.9717 8.21516 58.2842 8.15078 58.5668 8.0359C58.8502 7.92175 59.097 7.76223 59.3073 7.55881C59.5176 7.35539 59.6797 7.11757 59.7922 6.84683C59.9046 6.5761 59.9609 6.28048 59.9609 5.95998C59.9609 5.54948 59.8586 5.16605 59.6534 4.80897C59.4482 4.45261 59.1693 4.17309 58.8173 3.96894C58.4617 3.76186 58.0769 3.65795 57.6635 3.65795C57.2312 3.65795 56.8398 3.7582 56.4879 3.95797C56.1352 4.15846 55.8584 4.43285 55.6568 4.78189C55.4553 5.13093 55.3553 5.52021 55.3553 5.949C55.3553 6.36755 55.4553 6.75025 55.6547 7.09782C55.854 7.44539 56.1242 7.72052 56.4659 7.92467C56.807 8.12809 57.1809 8.2298 57.5869 8.2298H57.6307ZM54.6309 3.03089H55.3655V4.03992C55.5327 3.80357 55.678 3.64039 55.8014 3.54892C56.3418 3.12308 56.9698 2.91089 57.6854 2.91089C58.128 2.91089 58.5544 3.00674 58.9648 3.19988C59.3745 3.39965 59.736 3.67991 60.0485 4.03992C60.5085 4.55652 60.7393 5.19605 60.7393 5.95998C60.7393 6.51316 60.6006 7.01952 60.3231 7.47978C60.0456 7.94004 59.6673 8.30444 59.1875 8.57372C58.7122 8.84226 58.1937 8.9769 57.6307 8.9769C56.9012 8.9769 56.2987 8.75738 55.8233 8.31688C55.6853 8.19687 55.5473 8.01174 55.4093 7.76077V10.8809H54.6309V3.03089Z" fill="#98714B"/>
<path d="M57.6307 8.2298C57.9717 8.21516 58.2842 8.15078 58.5668 8.0359C58.8502 7.92175 59.097 7.76223 59.3073 7.55881C59.5176 7.35539 59.6797 7.11757 59.7922 6.84683C59.9046 6.5761 59.9609 6.28048 59.9609 5.95998C59.9609 5.54948 59.8586 5.16605 59.6534 4.80897C59.4482 4.45261 59.1693 4.17309 58.8173 3.96894C58.4617 3.76186 58.0769 3.65795 57.6635 3.65795C57.2312 3.65795 56.8398 3.7582 56.4879 3.95797C56.1352 4.15846 55.8584 4.43285 55.6568 4.78189C55.4553 5.13093 55.3553 5.52021 55.3553 5.949C55.3553 6.36755 55.4553 6.75025 55.6547 7.09782C55.854 7.44539 56.1242 7.72052 56.4659 7.92467C56.807 8.12809 57.1809 8.2298 57.5869 8.2298H57.6307ZM54.6309 3.03089H55.3655V4.03992C55.5327 3.80357 55.678 3.64039 55.8014 3.54892C56.3418 3.12308 56.9698 2.91089 57.6854 2.91089C58.128 2.91089 58.5544 3.00674 58.9648 3.19988C59.3745 3.39965 59.736 3.67991 60.0485 4.03992C60.5085 4.55652 60.7393 5.19605 60.7393 5.95998C60.7393 6.51316 60.6006 7.01952 60.3231 7.47978C60.0456 7.94004 59.6673 8.30444 59.1875 8.57372C58.7122 8.84226 58.1937 8.9769 57.6307 8.9769C56.9012 8.9769 56.2987 8.75738 55.8233 8.31688C55.6853 8.19687 55.5473 8.01174 55.4093 7.76077V10.8809H54.6309V3.03089Z" stroke="#98714B" stroke-width="0.533332" stroke-miterlimit="10" stroke-linecap="round" stroke-linejoin="round"/>
<path d="M65.2221 3.65762C64.7971 3.67225 64.4145 3.78347 64.0735 3.99056C63.7288 4.19398 63.4586 4.47057 63.2651 4.81961C63.0709 5.16864 62.9737 5.5528 62.9737 5.97062C62.9737 6.38185 63.0738 6.76015 63.2731 7.10553C63.4761 7.45456 63.7514 7.72896 64.0976 7.92946C64.4444 8.12922 64.8227 8.22947 65.2331 8.22947C65.6428 8.22947 66.0188 8.12776 66.3598 7.92434C66.6979 7.71653 66.963 7.4348 67.1573 7.07845C67.3515 6.72137 67.4486 6.32697 67.4486 5.89452C67.4486 5.50158 67.35 5.13279 67.1522 4.78668C66.9543 4.4413 66.6863 4.1669 66.3489 3.96275C66.0115 3.75933 65.6501 3.65762 65.266 3.65762H65.2221ZM65.1674 2.91052C65.7194 2.91052 66.2299 3.04662 66.7001 3.31956C67.1697 3.59249 67.5428 3.96056 67.8189 4.42447C68.0949 4.88765 68.2329 5.38889 68.2329 5.92745C68.2329 6.47258 68.0971 6.98041 67.824 7.44944C67.5523 7.91848 67.1857 8.2902 66.725 8.56533C66.2635 8.83973 65.7625 8.97656 65.2221 8.97656C64.6847 8.97656 64.1823 8.84046 63.7142 8.56753C63.2454 8.30191 62.8744 7.93751 62.6006 7.47359C62.3267 7.0104 62.1895 6.50917 62.1895 5.97062C62.1895 5.42914 62.326 4.92351 62.5977 4.45447C62.8664 3.98104 63.2293 3.60567 63.6864 3.32761C64.1443 3.04955 64.6379 2.91052 65.1674 2.91052Z" fill="#98714B"/>
<path d="M65.2221 3.65762C64.7971 3.67225 64.4145 3.78347 64.0735 3.99056C63.7288 4.19398 63.4586 4.47057 63.2651 4.81961C63.0709 5.16864 62.9737 5.5528 62.9737 5.97062C62.9737 6.38185 63.0738 6.76015 63.2731 7.10553C63.4761 7.45456 63.7514 7.72896 64.0976 7.92946C64.4444 8.12922 64.8227 8.22947 65.2331 8.22947C65.6428 8.22947 66.0188 8.12776 66.3598 7.92434C66.6979 7.71653 66.963 7.4348 67.1573 7.07845C67.3515 6.72137 67.4486 6.32697 67.4486 5.89452C67.4486 5.50158 67.35 5.13279 67.1522 4.78668C66.9543 4.4413 66.6863 4.1669 66.3489 3.96275C66.0115 3.75933 65.6501 3.65762 65.266 3.65762H65.2221ZM65.1674 2.91052C65.7194 2.91052 66.2299 3.04662 66.7001 3.31956C67.1697 3.59249 67.5428 3.96056 67.8189 4.42447C68.0949 4.88765 68.2329 5.38889 68.2329 5.92745C68.2329 6.47258 68.0971 6.98041 67.824 7.44944C67.5523 7.91848 67.1857 8.2902 66.725 8.56533C66.2635 8.83973 65.7625 8.97656 65.2221 8.97656C64.6847 8.97656 64.1823 8.84046 63.7142 8.56753C63.2454 8.30191 62.8744 7.93751 62.6006 7.47359C62.3267 7.0104 62.1895 6.50917 62.1895 5.97062C62.1895 5.42914 62.326 4.92351 62.5977 4.45447C62.8664 3.98104 63.2293 3.60567 63.6864 3.32761C64.1443 3.04955 64.6379 2.91052 65.1674 2.91052Z" stroke="#98714B" stroke-width="0.533332" stroke-miterlimit="10" stroke-linecap="round" stroke-linejoin="round"/>
<path d="M73.7776 8.14158L72.2916 4.21951L72.2697 4.02853L72.2478 4.21951L70.7669 8.14158H73.7776ZM74.4692 8.84551H70.0863V10.1875H69.3838V8.14158H69.9446L71.9484 3.04655H72.5961L74.605 8.14158H75.1826V10.1875H74.4692V8.84551Z" fill="#98714B"/>
<path d="M73.7776 8.14158L72.2916 4.21951L72.2697 4.02853L72.2478 4.21951L70.7669 8.14158H73.7776ZM74.4692 8.84551H70.0863V10.1875H69.3838V8.14158H69.9446L71.9484 3.04655H72.5961L74.605 8.14158H75.1826V10.1875H74.4692V8.84551Z" stroke="#98714B" stroke-width="0.533332" stroke-miterlimit="10" stroke-linecap="round" stroke-linejoin="round"/>
<path d="M77.3185 5.51267H80.6615V3.03577H81.456V8.8457H80.6615V6.21586H77.3185V8.8457H76.54V3.03577H77.3185V5.51267Z" fill="#98714B"/>
<path d="M77.3185 5.51267H80.6615V3.03577H81.456V8.8457H80.6615V6.21586H77.3185V8.8457H76.54V3.03577H77.3185V5.51267Z" stroke="#98714B" stroke-width="0.533332" stroke-miterlimit="10" stroke-linecap="round" stroke-linejoin="round"/>
<path d="M86.2648 3.65762C85.8295 3.65762 85.4301 3.76079 85.0672 3.96567C84.7042 4.17129 84.4194 4.45082 84.2121 4.80351C84.0054 5.1562 83.9024 5.54183 83.9024 5.95964C83.9024 6.36722 84.0076 6.74479 84.2179 7.09163C84.4282 7.4392 84.7123 7.71579 85.0701 7.92141C85.4272 8.12629 85.8149 8.22947 86.2326 8.22947C86.6313 8.22947 87.0045 8.12629 87.3514 7.92141C87.6975 7.71579 87.9728 7.4392 88.1758 7.09163C88.3795 6.74479 88.481 6.36722 88.481 5.95964C88.481 5.5528 88.381 5.17084 88.1816 4.81448C87.9816 4.45813 87.7114 4.17569 87.3703 3.9686C87.0286 3.76152 86.6606 3.65762 86.2648 3.65762ZM89.2427 3.03565V8.84046H88.481V7.74945C88.3394 7.99312 88.1794 8.19874 88.0013 8.36557C87.5266 8.77314 86.9402 8.97656 86.2429 8.97656C85.7784 8.97656 85.3067 8.86095 84.8277 8.63045C84.3486 8.39923 83.9689 8.10581 83.6899 7.74945C83.5154 7.52042 83.3767 7.24309 83.273 6.91747C83.17 6.59186 83.1182 6.2655 83.1182 5.93842C83.1182 5.39255 83.2569 4.88692 83.5344 4.42155C83.8126 3.95617 84.1909 3.58884 84.6699 3.31956C85.1453 3.04662 85.6623 2.91052 86.2209 2.91052C86.5693 2.91052 86.8993 2.96467 87.2097 3.07443C87.52 3.18346 87.7873 3.34151 88.013 3.54859C88.1867 3.70152 88.343 3.89982 88.481 4.14349V3.03053L89.2427 3.03565Z" fill="#98714B"/>
<path d="M86.2648 3.65762C85.8295 3.65762 85.4301 3.76079 85.0672 3.96568C84.7042 4.17129 84.4194 4.45082 84.2121 4.80351C84.0054 5.1562 83.9024 5.54183 83.9024 5.95964C83.9024 6.36722 84.0076 6.74479 84.2179 7.09163C84.4282 7.4392 84.7123 7.71579 85.0701 7.92141C85.4272 8.12629 85.8149 8.22947 86.2326 8.22947C86.6313 8.22947 87.0045 8.12629 87.3514 7.92141C87.6975 7.71579 87.9728 7.4392 88.1758 7.09163C88.3795 6.74479 88.481 6.36722 88.481 5.95964C88.481 5.5528 88.381 5.17084 88.1816 4.81448C87.9816 4.45813 87.7114 4.17569 87.3703 3.9686C87.0286 3.76152 86.6606 3.65762 86.2648 3.65762ZM89.2427 3.03565V8.84046H88.481V7.74945C88.3394 7.99312 88.1794 8.19874 88.0013 8.36557C87.5266 8.77314 86.9402 8.97656 86.2429 8.97656C85.7784 8.97656 85.3067 8.86095 84.8277 8.63045C84.3486 8.39923 83.9689 8.10581 83.6899 7.74945C83.5154 7.52042 83.3767 7.24309 83.273 6.91747C83.17 6.59186 83.1182 6.2655 83.1182 5.93842C83.1182 5.39255 83.2569 4.88692 83.5344 4.42154C83.8126 3.95617 84.1909 3.58884 84.6699 3.31956C85.1453 3.04662 85.6623 2.91052 86.2209 2.91052C86.5693 2.91052 86.8993 2.96467 87.2097 3.07443C87.52 3.18346 87.7873 3.34151 88.013 3.54859C88.1868 3.70152 88.343 3.89982 88.481 4.14349V3.03053L89.2427 3.03565Z" stroke="#98714B" stroke-width="0.533332" stroke-miterlimit="10" stroke-linecap="round" stroke-linejoin="round"/>
<path d="M90.6338 8.8457L92.888 6.37465C92.5353 6.36367 92.2294 6.29197 91.9679 6.15879C91.7065 6.02635 91.5079 5.83903 91.3713 5.59682C91.2355 5.35535 91.1676 5.07071 91.1676 4.74363C91.1676 4.25629 91.3231 3.86116 91.6357 3.55968C91.8314 3.37017 92.0672 3.23773 92.3433 3.1609C92.6193 3.0848 92.9932 3.04675 93.4649 3.04675H95.1036V8.8457H94.3091V3.67384H93.6395C93.1889 3.67384 92.8369 3.70311 92.5828 3.76091C92.3834 3.81579 92.2242 3.9358 92.1067 4.12093C91.9884 4.30678 91.9292 4.52484 91.9292 4.77582C91.9292 5.19437 92.1038 5.50682 92.4521 5.71463C92.612 5.81269 92.7843 5.88 92.9698 5.91659C93.1546 5.95244 93.4248 5.97074 93.7811 5.97074H94.1565L91.6795 8.8457H90.6338Z" fill="#98714B"/>
<path d="M90.6338 8.8457L92.888 6.37465C92.5353 6.36367 92.2294 6.29197 91.9679 6.15879C91.7065 6.02635 91.5079 5.83903 91.3713 5.59682C91.2355 5.35535 91.1676 5.07071 91.1676 4.74363C91.1676 4.25629 91.3231 3.86116 91.6357 3.55968C91.8314 3.37017 92.0672 3.23773 92.3433 3.1609C92.6193 3.0848 92.9932 3.04675 93.4649 3.04675H95.1036V8.8457H94.3091V3.67384H93.6395C93.1889 3.67384 92.8369 3.70311 92.5828 3.76091C92.3834 3.81579 92.2242 3.9358 92.1067 4.12093C91.9884 4.30678 91.9292 4.52484 91.9292 4.77582C91.9292 5.19437 92.1038 5.50682 92.4521 5.71463C92.612 5.81269 92.7843 5.88 92.9698 5.91659C93.1546 5.95244 93.4248 5.97074 93.7811 5.97074H94.1565L91.6795 8.8457H90.6338Z" stroke="#98714B" stroke-width="0.533332" stroke-miterlimit="10" stroke-linecap="round" stroke-linejoin="round"/>
<path d="M103.317 3.65762C102.882 3.65762 102.483 3.76079 102.12 3.96567C101.757 4.17129 101.472 4.45082 101.265 4.80351C101.058 5.1562 100.955 5.54183 100.955 5.95964C100.955 6.36722 101.06 6.74479 101.271 7.09163C101.481 7.4392 101.765 7.71579 102.123 7.92141C102.48 8.12629 102.868 8.22947 103.285 8.22947C103.684 8.22947 104.057 8.12629 104.404 7.92141C104.75 7.71579 105.026 7.4392 105.229 7.09163C105.432 6.74479 105.534 6.36722 105.534 5.95964C105.534 5.5528 105.434 5.17084 105.234 4.81448C105.034 4.45813 104.764 4.17569 104.423 3.9686C104.081 3.76152 103.713 3.65762 103.317 3.65762ZM106.295 3.03565V8.84046H105.534V7.74945C105.392 7.99312 105.232 8.19874 105.054 8.36557C104.579 8.77314 103.993 8.97656 103.296 8.97656C102.831 8.97656 102.359 8.86095 101.88 8.63045C101.401 8.39923 101.022 8.10581 100.743 7.74945C100.568 7.52042 100.429 7.24309 100.326 6.91747C100.223 6.59186 100.171 6.2655 100.171 5.93842C100.171 5.39255 100.31 4.88692 100.587 4.42155C100.865 3.95617 101.244 3.58884 101.723 3.31956C102.198 3.04662 102.715 2.91052 103.274 2.91052C103.622 2.91052 103.952 2.96467 104.262 3.07443C104.573 3.18346 104.84 3.34151 105.066 3.54859C105.239 3.70152 105.396 3.89982 105.534 4.14349V3.03053L106.295 3.03565Z" fill="#98714B"/>
<path d="M103.317 3.65762C102.882 3.65762 102.483 3.76079 102.12 3.96568C101.757 4.17129 101.472 4.45082 101.265 4.80351C101.058 5.1562 100.955 5.54183 100.955 5.95964C100.955 6.36722 101.06 6.74479 101.271 7.09163C101.481 7.4392 101.765 7.71579 102.123 7.92141C102.48 8.12629 102.868 8.22947 103.285 8.22947C103.684 8.22947 104.057 8.12629 104.404 7.92141C104.75 7.71579 105.026 7.4392 105.229 7.09163C105.432 6.74479 105.534 6.36722 105.534 5.95964C105.534 5.5528 105.434 5.17084 105.234 4.81448C105.034 4.45813 104.764 4.17569 104.423 3.9686C104.081 3.76152 103.713 3.65762 103.317 3.65762ZM106.295 3.03565V8.84046H105.534V7.74945C105.392 7.99312 105.232 8.19874 105.054 8.36557C104.579 8.77314 103.993 8.97656 103.296 8.97656C102.831 8.97656 102.359 8.86095 101.88 8.63045C101.401 8.39923 101.022 8.10581 100.743 7.74945C100.568 7.52042 100.429 7.24309 100.326 6.91747C100.223 6.59186 100.171 6.2655 100.171 5.93842C100.171 5.39255 100.31 4.88692 100.587 4.42154C100.865 3.95617 101.244 3.58884 101.723 3.31956C102.198 3.04662 102.715 2.91052 103.274 2.91052C103.622 2.91052 103.952 2.96467 104.262 3.07443C104.573 3.18346 104.84 3.34151 105.066 3.54859C105.239 3.70152 105.396 3.89982 105.534 4.14349V3.03053L106.295 3.03565Z" stroke="#98714B" stroke-width="0.533332" stroke-miterlimit="10" stroke-linecap="round" stroke-linejoin="round"/>
<path d="M109.07 5.83976L111.623 3.03577H112.548L109.995 5.81781L112.717 8.8457H111.753L109.07 5.83976ZM108.966 8.8457H108.188V3.03577H108.966V8.8457Z" fill="#98714B"/>
<path d="M109.07 5.83976L111.623 3.03577H112.548L109.995 5.81781L112.717 8.8457H111.753L109.07 5.83976ZM108.966 8.8457H108.188V3.03577H108.966V8.8457Z" stroke="#98714B" stroke-width="0.533332" stroke-miterlimit="10" stroke-linecap="round" stroke-linejoin="round"/>
<path d="M116.933 3.65762C116.498 3.65762 116.098 3.76079 115.735 3.96567C115.372 4.17129 115.087 4.45082 114.88 4.80351C114.673 5.1562 114.57 5.54183 114.57 5.95964C114.57 6.36722 114.676 6.74479 114.886 7.09163C115.096 7.4392 115.38 7.71579 115.738 7.92141C116.095 8.12629 116.483 8.22947 116.901 8.22947C117.299 8.22947 117.672 8.12629 118.019 7.92141C118.365 7.71579 118.641 7.4392 118.844 7.09163C119.048 6.74479 119.149 6.36722 119.149 5.95964C119.149 5.5528 119.049 5.17084 118.85 4.81448C118.65 4.45813 118.379 4.17569 118.038 3.9686C117.697 3.76152 117.329 3.65762 116.933 3.65762ZM119.911 3.03565V8.84046H119.149V7.74945C119.007 7.99312 118.847 8.19874 118.669 8.36557C118.195 8.77314 117.608 8.97656 116.911 8.97656C116.446 8.97656 115.975 8.86095 115.496 8.63045C115.017 8.39923 114.637 8.10581 114.358 7.74945C114.183 7.52042 114.045 7.24309 113.941 6.91747C113.838 6.59186 113.786 6.2655 113.786 5.93842C113.786 5.39255 113.925 4.88692 114.202 4.42155C114.481 3.95617 114.859 3.58884 115.338 3.31956C115.813 3.04662 116.33 2.91052 116.889 2.91052C117.237 2.91052 117.567 2.96467 117.878 3.07443C118.188 3.18346 118.455 3.34151 118.681 3.54859C118.855 3.70152 119.011 3.89982 119.149 4.14349V3.03053L119.911 3.03565Z" fill="#98714B"/>
<path d="M116.933 3.65762C116.498 3.65762 116.098 3.76079 115.735 3.96568C115.372 4.17129 115.087 4.45082 114.88 4.80351C114.673 5.1562 114.57 5.54183 114.57 5.95964C114.57 6.36722 114.676 6.74479 114.886 7.09163C115.096 7.4392 115.38 7.71579 115.738 7.92141C116.095 8.12629 116.483 8.22947 116.901 8.22947C117.299 8.22947 117.672 8.12629 118.019 7.92141C118.365 7.71579 118.641 7.4392 118.844 7.09163C119.048 6.74479 119.149 6.36722 119.149 5.95964C119.149 5.5528 119.049 5.17084 118.85 4.81448C118.65 4.45813 118.379 4.17569 118.038 3.9686C117.697 3.76152 117.329 3.65762 116.933 3.65762ZM119.911 3.03565V8.84046H119.149V7.74945C119.007 7.99312 118.847 8.19874 118.669 8.36557C118.195 8.77314 117.608 8.97656 116.911 8.97656C116.446 8.97656 115.975 8.86095 115.496 8.63045C115.017 8.39923 114.637 8.10581 114.358 7.74945C114.183 7.52042 114.045 7.24309 113.941 6.91747C113.838 6.59186 113.786 6.2655 113.786 5.93842C113.786 5.39255 113.925 4.88692 114.202 4.42154C114.481 3.95617 114.859 3.58884 115.338 3.31956C115.813 3.04662 116.33 2.91052 116.889 2.91052C117.237 2.91052 117.567 2.96467 117.878 3.07443C118.188 3.18346 118.455 3.34151 118.681 3.54859C118.855 3.70152 119.011 3.89982 119.149 4.14349V3.03053L119.911 3.03565Z" stroke="#98714B" stroke-width="0.533332" stroke-miterlimit="10" stroke-linecap="round" stroke-linejoin="round"/>
<path d="M125.673 8.14158L124.187 4.21951L124.165 4.02853L124.143 4.21951L122.662 8.14158H125.673ZM126.365 8.84551H121.982V10.1875H121.279V8.14158H121.84L123.844 3.04655H124.492L126.501 8.14158H127.078V10.1875H126.365V8.84551Z" fill="#98714B"/>
<path d="M125.673 8.14158L124.187 4.21951L124.165 4.02853L124.143 4.21951L122.662 8.14158H125.673ZM126.365 8.84551H121.982V10.1875H121.279V8.14158H121.84L123.844 3.04655H124.492L126.501 8.14158H127.078V10.1875H126.365V8.84551Z" stroke="#98714B" stroke-width="0.533332" stroke-miterlimit="10" stroke-linecap="round" stroke-linejoin="round"/>
<path d="M129.007 5.45767H133.423C133.365 5.12693 133.23 4.82327 133.016 4.54667C132.805 4.27008 132.542 4.05275 132.224 3.8947C131.907 3.73665 131.574 3.65762 131.226 3.65762C130.871 3.65762 130.54 3.7308 130.233 3.8786C129.927 4.02568 129.667 4.23788 129.453 4.51374C129.239 4.78668 129.09 5.10132 129.007 5.45767ZM134.223 6.17257H128.98C129.02 6.48502 129.081 6.73088 129.164 6.9087C129.277 7.16334 129.44 7.39237 129.654 7.59579C129.868 7.79628 130.113 7.95214 130.388 8.06263C130.664 8.17385 130.951 8.22947 131.248 8.22947C131.879 8.22947 132.421 8.01288 132.874 7.57969C133.045 7.41285 133.189 7.20505 133.309 6.95772H134.136C133.991 7.29285 133.861 7.54383 133.744 7.71067C133.628 7.87823 133.465 8.05093 133.254 8.22947C132.983 8.46508 132.667 8.64875 132.308 8.78046C131.95 8.91071 131.589 8.97656 131.226 8.97656C130.679 8.97656 130.174 8.84266 129.714 8.57557C129.253 8.30849 128.888 7.9419 128.617 7.47652C128.348 7.01113 128.213 6.50185 128.213 5.94867C128.213 5.39914 128.347 4.89205 128.615 4.42666C128.883 3.96129 129.249 3.59176 129.711 3.31956C130.174 3.04663 130.675 2.91052 131.215 2.91052C131.672 2.91052 132.105 3.00784 132.515 3.20468C132.925 3.40078 133.275 3.67884 133.565 4.03958C133.841 4.3813 134.031 4.77204 134.136 5.21255C134.172 5.37572 134.202 5.69622 134.223 6.17257Z" fill="#98714B"/>
<path d="M129.007 5.45767H133.423C133.365 5.12693 133.23 4.82327 133.016 4.54667C132.805 4.27008 132.542 4.05275 132.224 3.8947C131.907 3.73665 131.574 3.65762 131.226 3.65762C130.871 3.65762 130.54 3.7308 130.233 3.8786C129.927 4.02568 129.667 4.23788 129.453 4.51374C129.239 4.78668 129.09 5.10132 129.007 5.45767ZM134.223 6.17257H128.98C129.02 6.48502 129.081 6.73088 129.164 6.9087C129.277 7.16334 129.44 7.39237 129.654 7.59579C129.868 7.79628 130.113 7.95214 130.388 8.06263C130.664 8.17385 130.951 8.22947 131.248 8.22947C131.879 8.22947 132.421 8.01288 132.874 7.57969C133.045 7.41285 133.189 7.20505 133.309 6.95772H134.136C133.991 7.29285 133.861 7.54383 133.744 7.71067C133.628 7.87823 133.465 8.05093 133.254 8.22947C132.983 8.46508 132.667 8.64875 132.308 8.78046C131.95 8.91071 131.589 8.97656 131.226 8.97656C130.679 8.97656 130.174 8.84266 129.714 8.57557C129.253 8.30849 128.888 7.9419 128.617 7.47652C128.348 7.01113 128.213 6.50185 128.213 5.94867C128.213 5.39914 128.347 4.89205 128.615 4.42666C128.883 3.96129 129.249 3.59176 129.711 3.31956C130.174 3.04663 130.675 2.91052 131.215 2.91052C131.672 2.91052 132.105 3.00784 132.515 3.20468C132.925 3.40078 133.275 3.67884 133.565 4.03958C133.841 4.3813 134.031 4.77204 134.136 5.21255C134.172 5.37572 134.202 5.69622 134.223 6.17257Z" stroke="#98714B" stroke-width="0.533332" stroke-miterlimit="10" stroke-linecap="round" stroke-linejoin="round"/>
<path d="M135.793 8.8457V3.04675H137.012L138.929 7.55859L138.999 7.83665L139.076 7.54762L140.916 3.04675H142.097V8.8457H141.319V3.80482L139.196 8.8457H138.695L136.577 3.80482V8.8457H135.793Z" fill="#98714B"/>
<path d="M135.793 8.8457V3.04675H137.012L138.929 7.55859L138.999 7.83665L139.076 7.54762L140.916 3.04675H142.097V8.8457H141.319V3.80482L139.196 8.8457H138.695L136.577 3.80482V8.8457H135.793Z" stroke="#98714B" stroke-width="0.533332" stroke-miterlimit="10" stroke-linecap="round" stroke-linejoin="round"/>
<path d="M144.692 7.84762L148.034 3.03577H148.829V8.8457H148.034V4.02873L144.692 8.8457H143.913V3.03577H144.692V7.84762Z" fill="#98714B"/>
<path d="M144.692 7.84762L148.034 3.03577H148.829V8.8457H148.034V4.02873L144.692 8.8457H143.913V3.03577H144.692V7.84762Z" stroke="#98714B" stroke-width="0.533332" stroke-miterlimit="10" stroke-linecap="round" stroke-linejoin="round"/>
<path d="M150.215 8.8457L152.469 6.37465C152.116 6.36367 151.81 6.29197 151.548 6.15879C151.288 6.02635 151.088 5.83903 150.952 5.59682C150.817 5.35535 150.748 5.07071 150.748 4.74363C150.748 4.25629 150.904 3.86116 151.217 3.55968C151.412 3.37017 151.648 3.23773 151.924 3.1609C152.2 3.0848 152.574 3.04675 153.046 3.04675H154.685V8.8457H153.889V3.67384H153.22C152.77 3.67384 152.418 3.70311 152.164 3.76091C151.964 3.81579 151.805 3.9358 151.688 4.12093C151.569 4.30678 151.51 4.52484 151.51 4.77582C151.51 5.19437 151.685 5.50682 152.033 5.71463C152.193 5.81269 152.365 5.88 152.55 5.91659C152.736 5.95244 153.006 5.97074 153.362 5.97074H153.737L151.261 8.8457H150.215Z" fill="#98714B"/>
<path d="M150.215 8.8457L152.469 6.37465C152.116 6.36367 151.81 6.29197 151.548 6.15879C151.288 6.02635 151.088 5.83903 150.952 5.59682C150.817 5.35535 150.748 5.07071 150.748 4.74363C150.748 4.25629 150.904 3.86116 151.217 3.55968C151.412 3.37017 151.648 3.23773 151.924 3.1609C152.2 3.0848 152.574 3.04675 153.046 3.04675H154.685V8.8457H153.889V3.67384H153.22C152.77 3.67384 152.418 3.70311 152.164 3.76091C151.964 3.81579 151.805 3.9358 151.688 4.12093C151.569 4.30678 151.51 4.52484 151.51 4.77582C151.51 5.19437 151.685 5.50682 152.033 5.71463C152.193 5.81269 152.365 5.88 152.55 5.91659C152.736 5.95244 153.006 5.97074 153.362 5.97074H153.737L151.261 8.8457H150.215Z" stroke="#98714B" stroke-width="0.533332" stroke-miterlimit="10" stroke-linecap="round" stroke-linejoin="round"/>
<path d="M162.974 8.2298C163.315 8.21516 163.627 8.15078 163.91 8.0359C164.193 7.92175 164.441 7.76223 164.651 7.55881C164.861 7.35539 165.023 7.11757 165.135 6.84683C165.248 6.5761 165.304 6.28048 165.304 5.95998C165.304 5.54948 165.202 5.16605 164.997 4.80897C164.791 4.45261 164.512 4.17309 164.161 3.96894C163.805 3.76186 163.42 3.65795 163.007 3.65795C162.574 3.65795 162.183 3.7582 161.831 3.95797C161.478 4.15846 161.201 4.43285 161.001 4.78189C160.798 5.13093 160.698 5.52021 160.698 5.949C160.698 6.36755 160.798 6.75025 160.998 7.09782C161.197 7.44539 161.467 7.72052 161.809 7.92467C162.15 8.12809 162.524 8.2298 162.93 8.2298H162.974ZM159.975 3.03089H160.708V4.03992C160.876 3.80357 161.021 3.64039 161.144 3.54892C161.685 3.12308 162.314 2.91089 163.028 2.91089C163.472 2.91089 163.898 3.00674 164.308 3.19988C164.718 3.39965 165.079 3.67991 165.392 4.03992C165.852 4.55652 166.083 5.19605 166.083 5.95998C166.083 6.51316 165.944 7.01952 165.667 7.47978C165.389 7.94004 165.01 8.30444 164.531 8.57372C164.055 8.84226 163.537 8.9769 162.974 8.9769C162.244 8.9769 161.642 8.75738 161.166 8.31688C161.028 8.19687 160.89 8.01174 160.753 7.76077V10.8809H159.975V3.03089Z" fill="#98714B"/>
<path d="M162.974 8.2298C163.315 8.21516 163.627 8.15078 163.91 8.0359C164.193 7.92175 164.441 7.76223 164.651 7.55881C164.861 7.35539 165.023 7.11757 165.135 6.84683C165.248 6.5761 165.304 6.28048 165.304 5.95998C165.304 5.54948 165.202 5.16605 164.997 4.80897C164.791 4.45261 164.512 4.17309 164.161 3.96894C163.805 3.76186 163.42 3.65795 163.007 3.65795C162.574 3.65795 162.183 3.7582 161.831 3.95797C161.478 4.15846 161.201 4.43285 161.001 4.78189C160.798 5.13093 160.698 5.52021 160.698 5.949C160.698 6.36755 160.798 6.75025 160.998 7.09782C161.197 7.44539 161.467 7.72052 161.809 7.92467C162.15 8.12809 162.524 8.2298 162.93 8.2298H162.974ZM159.975 3.03089H160.708V4.03992C160.876 3.80357 161.021 3.64039 161.144 3.54892C161.685 3.12308 162.314 2.91089 163.028 2.91089C163.472 2.91089 163.898 3.00674 164.308 3.19988C164.718 3.39965 165.079 3.67991 165.392 4.03992C165.852 4.55652 166.083 5.19605 166.083 5.95998C166.083 6.51316 165.944 7.01952 165.667 7.47978C165.389 7.94004 165.01 8.30444 164.531 8.57372C164.055 8.84226 163.537 8.9769 162.974 8.9769C162.244 8.9769 161.642 8.75738 161.166 8.31688C161.028 8.19687 160.89 8.01174 160.753 7.76077V10.8809H159.975V3.03089Z" stroke="#98714B" stroke-width="0.533332" stroke-miterlimit="10" stroke-linecap="round" stroke-linejoin="round"/>
<path d="M170.681 3.65762C170.245 3.65762 169.845 3.76079 169.482 3.96567C169.119 4.17129 168.835 4.45082 168.628 4.80351C168.421 5.1562 168.318 5.54183 168.318 5.95964C168.318 6.36722 168.423 6.74479 168.633 7.09163C168.844 7.4392 169.128 7.71579 169.485 7.92141C169.843 8.12629 170.231 8.22947 170.648 8.22947C171.047 8.22947 171.42 8.12629 171.766 7.92141C172.113 7.71579 172.389 7.4392 172.592 7.09163C172.795 6.74479 172.896 6.36722 172.896 5.95964C172.896 5.5528 172.796 5.17084 172.597 4.81448C172.397 4.45813 172.126 4.17569 171.786 3.9686C171.444 3.76152 171.076 3.65762 170.681 3.65762ZM173.658 3.03565V8.84046H172.896V7.74945C172.755 7.99312 172.595 8.19874 172.417 8.36557C171.942 8.77314 171.356 8.97656 170.659 8.97656C170.194 8.97656 169.722 8.86095 169.243 8.63045C168.764 8.39923 168.385 8.10581 168.106 7.74945C167.931 7.52042 167.792 7.24309 167.689 6.91747C167.586 6.59186 167.533 6.2655 167.533 5.93842C167.533 5.39255 167.673 4.88692 167.95 4.42155C168.228 3.95617 168.606 3.58884 169.085 3.31956C169.561 3.04662 170.078 2.91052 170.637 2.91052C170.985 2.91052 171.314 2.96467 171.625 3.07443C171.936 3.18346 172.203 3.34151 172.429 3.54859C172.603 3.70152 172.759 3.89982 172.896 4.14349V3.03053L173.658 3.03565Z" fill="#98714B"/>
<path d="M170.681 3.65762C170.245 3.65762 169.845 3.76079 169.482 3.96568C169.119 4.17129 168.835 4.45082 168.628 4.80351C168.421 5.1562 168.318 5.54183 168.318 5.95964C168.318 6.36722 168.423 6.74479 168.633 7.09163C168.844 7.4392 169.128 7.71579 169.485 7.92141C169.843 8.12629 170.231 8.22947 170.648 8.22947C171.047 8.22947 171.42 8.12629 171.766 7.92141C172.113 7.71579 172.389 7.4392 172.592 7.09163C172.795 6.74479 172.896 6.36722 172.896 5.95964C172.896 5.5528 172.796 5.17084 172.597 4.81448C172.397 4.45813 172.126 4.17569 171.786 3.9686C171.444 3.76152 171.076 3.65762 170.681 3.65762ZM173.658 3.03565V8.84046H172.896V7.74945C172.755 7.99312 172.595 8.19874 172.417 8.36557C171.942 8.77314 171.356 8.97656 170.659 8.97656C170.194 8.97656 169.722 8.86095 169.243 8.63045C168.764 8.39923 168.385 8.10581 168.106 7.74945C167.931 7.52042 167.792 7.24309 167.689 6.91747C167.586 6.59186 167.533 6.2655 167.533 5.93842C167.533 5.39255 167.673 4.88692 167.95 4.42154C168.228 3.95617 168.606 3.58884 169.085 3.31956C169.561 3.04662 170.078 2.91052 170.637 2.91052C170.985 2.91052 171.314 2.96467 171.625 3.07443C171.936 3.18346 172.203 3.34151 172.429 3.54859C172.603 3.70152 172.759 3.89982 172.896 4.14349V3.03053L173.658 3.03565Z" stroke="#98714B" stroke-width="0.533332" stroke-miterlimit="10" stroke-linecap="round" stroke-linejoin="round"/>
<path d="M177.994 5.73546C178.313 5.81155 178.558 5.9279 178.73 6.08449C179.034 6.36474 179.187 6.72988 179.187 7.18135C179.187 7.38844 179.147 7.59844 179.067 7.81138C178.987 8.02357 178.878 8.20504 178.74 8.35432C178.635 8.46627 178.504 8.57384 178.348 8.67628C178.178 8.77799 178.016 8.84823 177.864 8.88848C177.711 8.92507 177.508 8.94336 177.254 8.94336C176.869 8.94336 176.531 8.87385 176.239 8.73628C175.946 8.59798 175.719 8.39749 175.555 8.13553C175.393 7.87357 175.305 7.56624 175.294 7.21428H176.072C176.098 7.41404 176.131 7.56185 176.171 7.65844C176.211 7.75503 176.279 7.85016 176.378 7.94528C176.603 8.16261 176.887 8.27236 177.232 8.27236C177.574 8.27236 177.852 8.17212 178.068 7.97235C178.284 7.77186 178.392 7.51576 178.392 7.20258C178.392 7.00281 178.338 6.81915 178.228 6.65158C178.12 6.48475 177.973 6.35377 177.788 6.25937C177.602 6.16425 177.396 6.11742 177.167 6.11742C177.025 6.11742 176.908 6.12474 176.813 6.13937V5.44642C176.962 5.46106 177.055 5.46838 177.091 5.46838C177.371 5.46838 177.607 5.37984 177.801 5.20349C177.995 5.02714 178.093 4.80982 178.093 4.55152C178.093 4.272 178.005 4.04663 177.831 3.87759C177.657 3.70856 177.425 3.62442 177.134 3.62442C176.873 3.62442 176.662 3.70052 176.502 3.85345C176.343 4.00272 176.248 4.21712 176.219 4.49737H175.441C175.474 4.00272 175.644 3.61856 175.953 3.34562C176.262 3.06977 176.677 2.93147 177.2 2.93147C177.512 2.93147 177.796 2.99879 178.051 3.13343C178.308 3.26733 178.508 3.45392 178.653 3.69247C178.798 3.93028 178.871 4.19517 178.871 4.48566C178.871 4.74763 178.82 4.97519 178.719 5.16836C178.657 5.28032 178.573 5.37837 178.468 5.46033C178.363 5.54155 178.205 5.63375 177.994 5.73546Z" fill="#98714B"/>
<path d="M177.994 5.73546C178.313 5.81155 178.558 5.9279 178.73 6.08449C179.034 6.36474 179.187 6.72988 179.187 7.18135C179.187 7.38844 179.147 7.59844 179.067 7.81138C178.987 8.02357 178.878 8.20504 178.74 8.35432C178.635 8.46627 178.504 8.57384 178.348 8.67628C178.178 8.77799 178.016 8.84823 177.864 8.88848C177.711 8.92507 177.508 8.94336 177.254 8.94336C176.869 8.94336 176.531 8.87385 176.239 8.73628C175.946 8.59798 175.719 8.39749 175.555 8.13553C175.393 7.87357 175.305 7.56624 175.294 7.21428H176.072C176.098 7.41404 176.131 7.56185 176.171 7.65844C176.211 7.75503 176.279 7.85016 176.378 7.94528C176.603 8.16261 176.887 8.27236 177.232 8.27236C177.574 8.27236 177.852 8.17212 178.068 7.97235C178.284 7.77186 178.392 7.51576 178.392 7.20258C178.392 7.00281 178.338 6.81915 178.228 6.65158C178.12 6.48475 177.973 6.35377 177.788 6.25937C177.602 6.16425 177.396 6.11742 177.167 6.11742C177.025 6.11742 176.908 6.12474 176.813 6.13937V5.44642C176.962 5.46106 177.055 5.46838 177.091 5.46838C177.371 5.46838 177.607 5.37984 177.801 5.20349C177.995 5.02714 178.093 4.80982 178.093 4.55152C178.093 4.272 178.005 4.04663 177.831 3.87759C177.657 3.70856 177.425 3.62442 177.134 3.62442C176.873 3.62442 176.662 3.70052 176.502 3.85345C176.343 4.00272 176.248 4.21712 176.219 4.49737H175.441C175.474 4.00272 175.644 3.61856 175.953 3.34562C176.262 3.06977 176.677 2.93147 177.2 2.93147C177.512 2.93147 177.796 2.99879 178.051 3.13343C178.308 3.26733 178.508 3.45392 178.653 3.69247C178.798 3.93028 178.871 4.19517 178.871 4.48566C178.871 4.74763 178.82 4.97519 178.719 5.16836C178.657 5.28032 178.573 5.37837 178.468 5.46033C178.363 5.54155 178.205 5.63375 177.994 5.73546Z" stroke="#98714B" stroke-width="0.533332" stroke-miterlimit="10" stroke-linecap="round" stroke-linejoin="round"/>
<path d="M181.628 8.14178H182.657C183.122 8.14178 183.445 8.09275 183.626 7.9947C183.946 7.81982 184.106 7.54542 184.106 7.17077C184.106 6.96004 184.051 6.77637 183.942 6.61978C183.833 6.46392 183.682 6.35343 183.487 6.28977C183.293 6.22611 182.99 6.19391 182.581 6.19391H181.628V8.14178ZM181.628 5.5017H182.592C182.998 5.5017 183.283 5.45414 183.446 5.35974C183.704 5.21779 183.833 4.97193 183.833 4.62289C183.833 4.29581 183.704 4.05214 183.446 3.89189C183.377 3.84872 183.296 3.81579 183.201 3.79384C183.067 3.76531 182.875 3.75067 182.624 3.75067H181.628V5.5017ZM180.86 8.8457V3.04675H182.636C182.954 3.04675 183.214 3.06797 183.413 3.11187C183.613 3.15578 183.792 3.23041 183.947 3.33578C184.162 3.47042 184.328 3.64823 184.448 3.87067C184.568 4.09239 184.628 4.33093 184.628 4.58484C184.628 4.85046 184.563 5.089 184.432 5.29974C184.301 5.50682 184.125 5.65609 183.903 5.74683C184.208 5.81634 184.46 5.98537 184.658 6.25392C184.855 6.52392 184.955 6.83637 184.955 7.19272C184.955 7.46566 184.893 7.7203 184.769 7.95665C184.639 8.193 184.463 8.38398 184.241 8.52886C184.052 8.65326 183.847 8.73668 183.626 8.78058C183.408 8.82375 183.082 8.8457 182.647 8.8457H180.86Z" fill="#98714B"/>
<path d="M181.628 8.14178H182.657C183.122 8.14178 183.445 8.09275 183.626 7.9947C183.946 7.81982 184.106 7.54542 184.106 7.17077C184.106 6.96004 184.051 6.77637 183.942 6.61978C183.833 6.46392 183.682 6.35343 183.487 6.28977C183.293 6.22611 182.99 6.19391 182.581 6.19391H181.628V8.14178ZM181.628 5.5017H182.592C182.998 5.5017 183.283 5.45414 183.446 5.35974C183.704 5.21779 183.833 4.97193 183.833 4.62289C183.833 4.29581 183.704 4.05214 183.446 3.89189C183.377 3.84872 183.296 3.81579 183.201 3.79384C183.067 3.76531 182.875 3.75067 182.624 3.75067H181.628V5.5017ZM180.86 8.8457V3.04675H182.636C182.954 3.04675 183.214 3.06797 183.413 3.11187C183.613 3.15578 183.792 3.23041 183.947 3.33578C184.162 3.47042 184.328 3.64823 184.448 3.87067C184.568 4.09239 184.628 4.33093 184.628 4.58484C184.628 4.85046 184.563 5.089 184.432 5.29974C184.301 5.50682 184.125 5.65609 183.903 5.74683C184.208 5.81634 184.46 5.98537 184.658 6.25392C184.855 6.52392 184.955 6.83637 184.955 7.19272C184.955 7.46566 184.893 7.7203 184.769 7.95665C184.639 8.193 184.463 8.38398 184.241 8.52886C184.052 8.65326 183.847 8.73668 183.626 8.78058C183.408 8.82375 183.082 8.8457 182.647 8.8457H180.86Z" stroke="#98714B" stroke-width="0.533332" stroke-miterlimit="10" stroke-linecap="round" stroke-linejoin="round"/>
<path d="M187.406 7.84762L190.749 3.03577H191.544V8.8457H190.749V4.02873L187.406 8.8457H186.628V3.03577H187.406V7.84762Z" fill="#98714B"/>
<path d="M187.406 7.84762L190.749 3.03577H191.544V8.8457H190.749V4.02873L187.406 8.8457H186.628V3.03577H187.406V7.84762Z" stroke="#98714B" stroke-width="0.533332" stroke-miterlimit="10" stroke-linecap="round" stroke-linejoin="round"/>
<path d="M194.274 8.8457V3.75067H192.907V3.04675H196.419V3.75067H195.058V8.8457H194.274Z" fill="#98714B"/>
<path d="M194.274 8.8457V3.75067H192.907V3.04675H196.419V3.75067H195.058V8.8457H194.274Z" stroke="#98714B" stroke-width="0.533332" stroke-miterlimit="10" stroke-linecap="round" stroke-linejoin="round"/>
<path d="M198.561 7.84762L201.903 3.03577H202.698V8.8457H201.903V4.02873L198.561 8.8457H197.782V3.03577H198.561V7.84762Z" fill="#98714B"/>
<path d="M198.561 7.84762L201.903 3.03577H202.698V8.8457H201.903V4.02873L198.561 8.8457H197.782V3.03577H198.561V7.84762Z" stroke="#98714B" stroke-width="0.533332" stroke-miterlimit="10" stroke-linecap="round" stroke-linejoin="round"/>
<path d="M204.084 8.8457L206.338 6.37465C205.986 6.36367 205.68 6.29197 205.417 6.15879C205.157 6.02635 204.957 5.83903 204.822 5.59682C204.685 5.35535 204.617 5.07071 204.617 4.74363C204.617 4.25629 204.773 3.86116 205.085 3.55968C205.282 3.37017 205.517 3.23773 205.793 3.1609C206.07 3.0848 206.443 3.04675 206.915 3.04675H208.554V8.8457H207.759V3.67384H207.089C206.639 3.67384 206.287 3.70311 206.033 3.76091C205.834 3.81579 205.674 3.9358 205.557 4.12093C205.438 4.30678 205.379 4.52484 205.379 4.77582C205.379 5.19437 205.554 5.50682 205.902 5.71463C206.061 5.81269 206.234 5.88 206.419 5.91659C206.604 5.95244 206.874 5.97074 207.231 5.97074H207.606L205.129 8.8457H204.084Z" fill="#98714B"/>
<path d="M204.084 8.8457L206.338 6.37465C205.986 6.36367 205.68 6.29197 205.417 6.15879C205.157 6.02635 204.957 5.83903 204.822 5.59682C204.685 5.35535 204.617 5.07071 204.617 4.74363C204.617 4.25629 204.773 3.86116 205.085 3.55968C205.282 3.37017 205.517 3.23773 205.793 3.1609C206.07 3.0848 206.443 3.04675 206.915 3.04675H208.554V8.8457H207.759V3.67384H207.089C206.639 3.67384 206.287 3.70311 206.033 3.76091C205.834 3.81579 205.674 3.9358 205.557 4.12093C205.438 4.30678 205.379 4.52484 205.379 4.77582C205.379 5.19437 205.554 5.50682 205.902 5.71463C206.061 5.81269 206.234 5.88 206.419 5.91659C206.604 5.95244 206.874 5.97074 207.231 5.97074H207.606L205.129 8.8457H204.084Z" stroke="#98714B" stroke-width="0.533332" stroke-miterlimit="10" stroke-linecap="round" stroke-linejoin="round"/>
<path d="M214.622 7.84762L217.964 3.03577H218.76V8.8457H217.964V4.02873L214.622 8.8457H213.844V3.03577H214.622V7.84762Z" fill="#98714B"/>
<path d="M214.622 7.84762L217.964 3.03577H218.76V8.8457H217.964V4.02873L214.622 8.8457H213.844V3.03577H214.622V7.84762Z" stroke="#98714B" stroke-width="0.533332" stroke-miterlimit="10" stroke-linecap="round" stroke-linejoin="round"/>
<path d="M221.425 5.51267H224.767V3.03577H225.562V8.8457H224.767V6.21586H221.425V8.8457H220.646V3.03577H221.425V5.51267Z" fill="#98714B"/>
<path d="M221.425 5.51267H224.767V3.03577H225.562V8.8457H224.767V6.21586H221.425V8.8457H220.646V3.03577H221.425V5.51267Z" stroke="#98714B" stroke-width="0.533332" stroke-miterlimit="10" stroke-linecap="round" stroke-linejoin="round"/>
<path d="M228.291 8.8457V3.75067H226.925V3.04675H230.437V3.75067H229.075V8.8457H228.291Z" fill="#98714B"/>
<path d="M228.291 8.8457V3.75067H226.925V3.04675H230.437V3.75067H229.075V8.8457H228.291Z" stroke="#98714B" stroke-width="0.533332" stroke-miterlimit="10" stroke-linecap="round" stroke-linejoin="round"/>
<path d="M232.372 5.45767H236.788C236.73 5.12693 236.594 4.82327 236.38 4.54667C236.17 4.27008 235.906 4.05275 235.588 3.8947C235.271 3.73665 234.939 3.65762 234.591 3.65762C234.235 3.65762 233.904 3.7308 233.598 3.8786C233.292 4.02568 233.031 4.23788 232.817 4.51374C232.603 4.78668 232.455 5.10132 232.372 5.45767ZM237.588 6.17257H232.345C232.384 6.48502 232.446 6.73088 232.529 6.9087C232.641 7.16334 232.805 7.39237 233.019 7.59579C233.233 7.79628 233.478 7.95214 233.753 8.06263C234.029 8.17385 234.315 8.22947 234.612 8.22947C235.244 8.22947 235.786 8.01288 236.239 7.57969C236.409 7.41285 236.554 7.20505 236.674 6.95772H237.5C237.356 7.29285 237.225 7.54383 237.109 7.71067C236.993 7.87823 236.83 8.05093 236.619 8.22947C236.347 8.46508 236.032 8.64875 235.673 8.78046C235.314 8.91071 234.953 8.97656 234.591 8.97656C234.043 8.97656 233.539 8.84266 233.079 8.57557C232.618 8.30849 232.253 7.9419 231.982 7.47652C231.712 7.01113 231.577 6.50185 231.577 5.94867C231.577 5.39914 231.712 4.89205 231.98 4.42666C232.248 3.96129 232.613 3.59176 233.076 3.31956C233.539 3.04663 234.04 2.91052 234.579 2.91052C235.036 2.91052 235.47 3.00784 235.88 3.20468C236.289 3.40078 236.64 3.67884 236.929 4.03958C237.205 4.3813 237.396 4.77204 237.5 5.21255C237.537 5.37572 237.566 5.69622 237.588 6.17257Z" fill="#98714B"/>
<path d="M232.372 5.45767H236.788C236.73 5.12693 236.594 4.82327 236.38 4.54667C236.17 4.27008 235.906 4.05275 235.588 3.8947C235.271 3.73665 234.939 3.65762 234.591 3.65762C234.235 3.65762 233.904 3.7308 233.598 3.8786C233.292 4.02568 233.031 4.23788 232.817 4.51374C232.603 4.78668 232.455 5.10132 232.372 5.45767ZM237.588 6.17257H232.345C232.384 6.48502 232.446 6.73088 232.529 6.9087C232.641 7.16334 232.805 7.39237 233.019 7.59579C233.233 7.79628 233.478 7.95214 233.753 8.06263C234.029 8.17385 234.315 8.22947 234.612 8.22947C235.244 8.22947 235.786 8.01288 236.239 7.57969C236.409 7.41285 236.554 7.20505 236.674 6.95772H237.5C237.356 7.29285 237.225 7.54383 237.109 7.71067C236.993 7.87823 236.83 8.05093 236.619 8.22947C236.347 8.46508 236.032 8.64875 235.673 8.78046C235.314 8.91071 234.953 8.97656 234.591 8.97656C234.043 8.97656 233.539 8.84266 233.079 8.57557C232.618 8.30849 232.253 7.9419 231.982 7.47652C231.712 7.01113 231.577 6.50185 231.577 5.94867C231.577 5.39914 231.712 4.89205 231.98 4.42666C232.248 3.96129 232.613 3.59176 233.076 3.31956C233.539 3.04663 234.04 2.91052 234.579 2.91052C235.036 2.91052 235.47 3.00784 235.88 3.20468C236.289 3.40078 236.64 3.67884 236.929 4.03958C237.205 4.3813 237.396 4.77204 237.5 5.21255C237.537 5.37572 237.566 5.69622 237.588 6.17257Z" stroke="#98714B" stroke-width="0.533332" stroke-miterlimit="10" stroke-linecap="round" stroke-linejoin="round"/>
<path d="M241.55 2.93186L243.699 8.8457H242.867L241.138 4.08288L239.424 8.8457H238.57L240.73 2.93186H241.55Z" fill="#98714B"/>
<path d="M241.55 2.93186L243.699 8.8457H242.867L241.138 4.08288L239.424 8.8457H238.57L240.73 2.93186H241.55Z" stroke="#98714B" stroke-width="0.533332" stroke-miterlimit="10" stroke-linecap="round" stroke-linejoin="round"/>
<path d="M247.236 2.93186L249.384 8.8457H248.553L246.823 4.08288L245.11 8.8457H244.256L246.415 2.93186H247.236Z" fill="#98714B"/>
<path d="M247.236 2.93186L249.384 8.8457H248.553L246.823 4.08288L245.11 8.8457H244.256L246.415 2.93186H247.236Z" stroke="#98714B" stroke-width="0.533332" stroke-miterlimit="10" stroke-linecap="round" stroke-linejoin="round"/>
<path d="M251.183 5.45767H255.6C255.542 5.12693 255.405 4.82327 255.191 4.54667C254.981 4.27008 254.718 4.05275 254.4 3.8947C254.083 3.73665 253.751 3.65762 253.402 3.65762C253.047 3.65762 252.716 3.7308 252.41 3.8786C252.103 4.02568 251.843 4.23788 251.629 4.51374C251.415 4.78668 251.266 5.10132 251.183 5.45767ZM256.399 6.17257H251.156C251.196 6.48502 251.258 6.73088 251.341 6.9087C251.453 7.16334 251.616 7.39237 251.83 7.59579C252.044 7.79628 252.289 7.95214 252.565 8.06263C252.841 8.17385 253.126 8.22947 253.424 8.22947C254.055 8.22947 254.597 8.01288 255.051 7.57969C255.221 7.41285 255.366 7.20505 255.486 6.95772H256.312C256.167 7.29285 256.036 7.54383 255.92 7.71067C255.804 7.87823 255.641 8.05093 255.431 8.22947C255.159 8.46508 254.844 8.64875 254.485 8.78046C254.125 8.91071 253.765 8.97656 253.402 8.97656C252.855 8.97656 252.351 8.84266 251.89 8.57557C251.429 8.30849 251.064 7.9419 250.794 7.47652C250.524 7.01113 250.389 6.50185 250.389 5.94867C250.389 5.39914 250.523 4.89205 250.791 4.42666C251.06 3.96129 251.425 3.59176 251.887 3.31956C252.35 3.04663 252.851 2.91052 253.391 2.91052C253.848 2.91052 254.282 3.00784 254.691 3.20468C255.101 3.40078 255.451 3.67884 255.741 4.03958C256.017 4.3813 256.207 4.77204 256.312 5.21255C256.348 5.37572 256.377 5.69622 256.399 6.17257Z" fill="#98714B"/>
<path d="M251.183 5.45767H255.6C255.542 5.12693 255.405 4.82327 255.191 4.54667C254.981 4.27008 254.718 4.05275 254.4 3.8947C254.083 3.73665 253.751 3.65762 253.402 3.65762C253.047 3.65762 252.716 3.7308 252.41 3.8786C252.103 4.02568 251.843 4.23788 251.629 4.51374C251.415 4.78668 251.266 5.10132 251.183 5.45767ZM256.399 6.17257H251.156C251.196 6.48502 251.258 6.73088 251.341 6.9087C251.453 7.16334 251.616 7.39237 251.83 7.59579C252.044 7.79628 252.289 7.95214 252.565 8.06263C252.841 8.17385 253.126 8.22947 253.424 8.22947C254.055 8.22947 254.597 8.01288 255.051 7.57969C255.221 7.41285 255.366 7.20505 255.486 6.95772H256.312C256.167 7.29285 256.036 7.54383 255.92 7.71067C255.804 7.87823 255.641 8.05093 255.431 8.22947C255.159 8.46508 254.844 8.64875 254.485 8.78046C254.125 8.91071 253.765 8.97656 253.402 8.97656C252.855 8.97656 252.351 8.84266 251.89 8.57557C251.429 8.30849 251.064 7.9419 250.794 7.47652C250.524 7.01113 250.389 6.50185 250.389 5.94867C250.389 5.39914 250.523 4.89205 250.791 4.42666C251.06 3.96129 251.425 3.59176 251.887 3.31956C252.35 3.04663 252.851 2.91052 253.391 2.91052C253.848 2.91052 254.282 3.00784 254.691 3.20468C255.101 3.40078 255.451 3.67884 255.741 4.03958C256.017 4.3813 256.207 4.77204 256.312 5.21255C256.348 5.37572 256.377 5.69622 256.399 6.17257Z" stroke="#98714B" stroke-width="0.533332" stroke-miterlimit="10" stroke-linecap="round" stroke-linejoin="round"/>
<path d="M258.932 5.83976L261.485 3.03577H262.411L259.858 5.81781L262.579 8.8457H261.616L258.932 5.83976ZM258.828 8.8457H258.05V3.03577H258.828V8.8457Z" fill="#98714B"/>
<path d="M258.932 5.83976L261.485 3.03577H262.411L259.858 5.81781L262.579 8.8457H261.616L258.932 5.83976ZM258.828 8.8457H258.05V3.03577H258.828V8.8457Z" stroke="#98714B" stroke-width="0.533332" stroke-miterlimit="10" stroke-linecap="round" stroke-linejoin="round"/>
<path d="M264.716 8.8457V3.75067H263.35V3.04675H266.861V3.75067H265.5V8.8457H264.716Z" fill="#98714B"/>
<path d="M264.716 8.8457V3.75067H263.35V3.04675H266.861V3.75067H265.5V8.8457H264.716Z" stroke="#98714B" stroke-width="0.533332" stroke-miterlimit="10" stroke-linecap="round" stroke-linejoin="round"/>
<path d="M271.148 3.65762C270.712 3.65762 270.313 3.76079 269.95 3.96567C269.587 4.17129 269.303 4.45082 269.096 4.80351C268.888 5.1562 268.785 5.54183 268.785 5.95964C268.785 6.36722 268.89 6.74479 269.101 7.09163C269.311 7.4392 269.596 7.71579 269.953 7.92141C270.311 8.12629 270.698 8.22947 271.115 8.22947C271.515 8.22947 271.888 8.12629 272.234 7.92141C272.581 7.71579 272.856 7.4392 273.059 7.09163C273.262 6.74479 273.364 6.36722 273.364 5.95964C273.364 5.5528 273.264 5.17084 273.064 4.81448C272.865 4.45813 272.594 4.17569 272.253 3.9686C271.912 3.76152 271.543 3.65762 271.148 3.65762ZM274.126 3.03565V8.84046H273.364V7.74945C273.222 7.99312 273.062 8.19874 272.885 8.36557C272.409 8.77314 271.823 8.97656 271.126 8.97656C270.662 8.97656 270.19 8.86095 269.71 8.63045C269.231 8.39923 268.852 8.10581 268.573 7.74945C268.398 7.52042 268.26 7.24309 268.157 6.91747C268.054 6.59186 268.001 6.2655 268.001 5.93842C268.001 5.39255 268.14 4.88692 268.418 4.42155C268.695 3.95617 269.074 3.58884 269.553 3.31956C270.029 3.04662 270.546 2.91052 271.104 2.91052C271.453 2.91052 271.782 2.96467 272.093 3.07443C272.403 3.18346 272.671 3.34151 272.896 3.54859C273.07 3.70152 273.226 3.89982 273.364 4.14349V3.03053L274.126 3.03565Z" fill="#98714B"/>
<path d="M271.148 3.65762C270.712 3.65762 270.313 3.76079 269.95 3.96568C269.587 4.17129 269.303 4.45082 269.096 4.80351C268.888 5.1562 268.785 5.54183 268.785 5.95964C268.785 6.36722 268.89 6.74479 269.101 7.09163C269.311 7.4392 269.596 7.71579 269.953 7.92141C270.311 8.12629 270.698 8.22947 271.115 8.22947C271.515 8.22947 271.888 8.12629 272.234 7.92141C272.581 7.71579 272.856 7.4392 273.059 7.09163C273.262 6.74479 273.364 6.36722 273.364 5.95964C273.364 5.5528 273.264 5.17084 273.064 4.81448C272.865 4.45813 272.594 4.17569 272.253 3.9686C271.912 3.76152 271.543 3.65762 271.148 3.65762ZM274.126 3.03565V8.84046H273.364V7.74945C273.222 7.99312 273.062 8.19874 272.885 8.36557C272.409 8.77314 271.823 8.97656 271.126 8.97656C270.662 8.97656 270.19 8.86095 269.71 8.63045C269.231 8.39923 268.852 8.10581 268.573 7.74945C268.398 7.52042 268.26 7.24309 268.157 6.91747C268.054 6.59186 268.001 6.2655 268.001 5.93842C268.001 5.39255 268.14 4.88692 268.418 4.42154C268.695 3.95617 269.074 3.58884 269.553 3.31956C270.029 3.04662 270.546 2.91052 271.104 2.91052C271.453 2.91052 271.782 2.96467 272.093 3.07443C272.403 3.18346 272.671 3.34151 272.896 3.54859C273.07 3.70152 273.226 3.89982 273.364 4.14349V3.03053L274.126 3.03565Z" stroke="#98714B" stroke-width="0.533332" stroke-miterlimit="10" stroke-linecap="round" stroke-linejoin="round"/>
<path d="M31.5926 38.9837H28.2211C28.0159 38.9837 27.8217 39.0773 27.6939 39.239C26.8059 40.3608 26.0552 41.1869 25.4623 41.6947C24.8752 42.1967 24.0872 42.7038 23.1248 43.1992C21.3619 44.0955 19.5239 44.5499 17.6612 44.5499C15.5033 44.5499 13.4564 43.988 11.579 42.8809C9.70665 41.7686 8.19504 40.2539 7.08508 38.3771C5.96635 36.495 5.39896 34.452 5.39896 32.3052C5.39896 30.1729 5.9554 28.1548 7.05367 26.3079C8.15634 24.453 9.66063 22.9522 11.5257 21.8466C13.3827 20.746 15.4047 20.1877 17.5341 20.1877C18.8974 20.1877 20.26 20.4124 21.5795 20.8536C22.9159 21.3088 24.1347 21.9593 25.2096 22.7942C25.9457 23.3473 26.7417 24.1954 27.5763 25.3142C27.7033 25.4847 27.9027 25.5849 28.1152 25.5849H31.5079C31.7379 25.5849 31.9519 25.4671 32.0753 25.2725C32.1987 25.0786 32.2148 24.8342 32.1169 24.6249C31.6715 23.6737 31.1785 22.8614 30.655 22.2161C29.5998 20.8946 28.2299 19.6616 26.5671 18.5414C23.8397 16.8079 20.7866 15.929 17.4917 15.929C14.5021 15.929 11.7104 16.6637 9.19404 18.1118C6.67834 19.5599 4.66215 21.5612 3.2024 24.0607C1.74119 26.5618 1 29.3358 1 32.3052C1 35.2877 1.74046 38.0829 3.20094 40.611C4.66069 43.1399 6.68052 45.1602 9.20425 46.6156C11.7272 48.071 14.5299 48.8086 17.5341 48.8086C21.6541 48.8086 25.3841 47.381 28.6344 44.5514C29.3741 43.868 29.9897 43.2211 30.4644 42.6277C30.942 42.0291 31.5014 41.1678 32.1753 39.9934C32.2951 39.7849 32.2951 39.5288 32.1747 39.3195C32.0541 39.1117 31.8329 38.9837 31.5926 38.9837Z" fill="#98714B"/>
<path d="M39.0148 16.3981H35.9821C35.6104 16.3981 35.3096 16.7003 35.3096 17.072V47.6269C35.3096 47.9993 35.6104 48.3008 35.9821 48.3008H39.0148C39.3858 48.3008 39.6874 47.9993 39.6874 47.6269V17.072C39.6874 16.7003 39.3858 16.3981 39.0148 16.3981Z" fill="#98714B"/>
<path d="M47.3423 33.7562C47.6592 32.802 48.1207 31.9342 48.7232 31.1673C49.4877 30.1795 50.4297 29.4119 51.5229 28.8865C52.619 28.3589 53.8217 28.0918 55.0981 28.0918C56.3425 28.0918 57.5496 28.3794 58.6858 28.9465C59.8221 29.5129 60.7801 30.3017 61.5359 31.2946C62.1245 32.0542 62.551 32.8796 62.8094 33.7562H47.3423ZM64.7307 28.4818C63.5426 27.0074 62.088 25.8513 60.4092 25.0464C58.7289 24.2415 56.9274 23.8332 55.0558 23.8332C52.8388 23.8332 50.7525 24.4003 48.8561 25.5199C46.9618 26.6372 45.4451 28.1709 44.3461 30.077C43.2464 31.9861 42.6885 34.0943 42.6885 36.3421C42.6885 38.6061 43.25 40.7223 44.3578 42.6306C45.4641 44.5375 46.9823 46.0602 48.8707 47.1563C50.7598 48.2532 52.8549 48.8086 55.0981 48.8086C56.582 48.8086 58.0782 48.5379 59.5438 48.0037C61.0131 47.4673 62.3246 46.7034 63.4346 45.739C64.2948 45.0095 64.9754 44.2865 65.4588 43.5906C65.94 42.8969 66.4599 41.8996 67.0485 40.5415C67.139 40.3337 67.1194 40.0944 66.9945 39.9042C66.8703 39.7139 66.6586 39.5998 66.4322 39.5998H63.2118C62.954 39.5998 62.7189 39.7468 62.6065 39.9796C62.1764 40.8686 61.652 41.6208 61.0532 42.2077C59.4022 43.7838 57.4824 44.5499 55.1829 44.5499C54.116 44.5499 53.0739 44.3487 52.0859 43.9514C51.0943 43.5511 50.2019 42.9848 49.4388 42.2706C48.6735 41.5425 48.0827 40.715 47.6775 39.7959C47.4518 39.3151 47.2685 38.6749 47.1291 37.8875H66.771C66.9543 37.8875 67.1303 37.8122 67.2574 37.679C67.3844 37.5465 67.4516 37.3666 67.4428 37.1829C67.3552 35.2723 67.2398 34.0116 67.0865 33.3164C66.6549 31.5135 65.8626 29.886 64.7307 28.4818Z" fill="#98714B"/>
<path d="M90.966 24.3242H87.6791C87.4075 24.3242 87.1636 24.4873 87.0585 24.7376L79.8547 41.9925L72.6501 24.7376C72.5457 24.4873 72.3011 24.3242 72.0301 24.3242H68.7645C68.5396 24.3242 68.3293 24.4369 68.2044 24.6249C68.0796 24.813 68.0569 25.0508 68.1445 25.2586L77.6231 47.8881C77.7282 48.1383 77.9728 48.3008 78.243 48.3008H81.424C81.6941 48.3008 81.938 48.1383 82.0432 47.8896L91.5859 25.2601C91.6735 25.0523 91.6509 24.8137 91.5268 24.6257C91.4019 24.4369 91.1916 24.3242 90.966 24.3242Z" fill="#98714B"/>
<path d="M96.9829 33.7562C97.2998 32.802 97.7613 31.9342 98.3638 31.1673C99.1284 30.1795 100.07 29.4119 101.164 28.8865C102.26 28.3589 103.462 28.0918 104.739 28.0918C105.983 28.0918 107.19 28.3794 108.326 28.9465C109.463 29.5129 110.421 30.3017 111.177 31.2946C111.765 32.0542 112.192 32.8796 112.45 33.7562H96.9829ZM114.371 28.4818C113.183 27.0074 111.729 25.8513 110.05 25.0464C108.37 24.2415 106.568 23.8332 104.696 23.8332C102.479 23.8332 100.393 24.4003 98.4967 25.5199C96.6025 26.6372 95.0858 28.1709 93.9867 30.077C92.887 31.9861 92.3291 34.0943 92.3291 36.3421C92.3291 38.6061 92.8907 40.7223 93.9984 42.6306C95.1047 44.5375 96.6229 46.0602 98.5113 47.1563C100.4 48.2532 102.495 48.8086 104.739 48.8086C106.223 48.8086 107.719 48.5379 109.184 48.0037C110.654 47.4673 111.965 46.7034 113.075 45.739C113.935 45.0095 114.617 44.2865 115.099 43.5906C115.581 42.8948 116.102 41.8974 116.689 40.5415C116.78 40.3337 116.759 40.0937 116.635 39.9042C116.51 39.7139 116.299 39.5998 116.073 39.5998H112.852C112.595 39.5998 112.36 39.7468 112.247 39.9796C111.817 40.8686 111.293 41.6208 110.694 42.2077C109.043 43.7838 107.123 44.5499 104.823 44.5499C103.757 44.5499 102.715 44.3487 101.727 43.9514C100.735 43.5511 99.8425 42.9848 99.0794 42.2706C98.3141 41.5425 97.7234 40.715 97.3181 39.7959C97.0924 39.3151 96.9092 38.6749 96.7697 37.8875H116.411C116.595 37.8875 116.771 37.8122 116.898 37.679C117.025 37.5465 117.092 37.3666 117.083 37.1829C116.996 35.2709 116.88 34.0101 116.727 33.3171C116.296 31.5141 115.504 29.8868 114.371 28.4818Z" fill="#98714B"/>
<path d="M130.567 24.0146C130.43 23.8873 130.244 23.8222 130.059 23.8369C128.484 23.9576 127.29 24.2049 126.409 24.5913C125.613 24.9352 124.915 25.4042 124.35 25.9713C124.302 26.0159 124.256 26.0613 124.21 26.1089V24.9981C124.21 24.6257 123.908 24.3242 123.537 24.3242H120.675C120.303 24.3242 120.002 24.6257 120.002 24.9981V47.6269C120.002 47.9993 120.303 48.3008 120.675 48.3008H123.706C124.077 48.3008 124.379 47.9993 124.379 47.6269V34.9628C124.379 32.9418 124.648 32.0081 124.878 31.5705C125.386 30.5659 126.197 29.7046 127.263 29.0255C127.997 28.6063 128.98 28.3275 130.183 28.1965C130.524 28.1592 130.782 27.8709 130.782 27.5263V24.5094C130.782 24.3212 130.704 24.142 130.567 24.0146Z" fill="#98714B"/>
<path d="M218.76 27.3129V24.5294C218.76 24.1576 218.458 23.8555 218.087 23.8555H213.501V16.604C213.501 16.2315 213.2 15.9301 212.828 15.9301H209.796C209.424 15.9301 209.124 16.2315 209.124 16.604V23.8555H205.067C204.696 23.8555 204.395 24.1576 204.395 24.5294V27.3129C204.395 27.6853 204.696 27.9868 205.067 27.9868H209.124V47.1588C209.124 47.5306 209.424 47.832 209.796 47.832H212.828C213.2 47.832 213.501 47.5306 213.501 47.1588V27.9868H218.087C218.458 27.9868 218.76 27.6853 218.76 27.3129Z" fill="#98714B"/>
<path d="M238.322 39.9862C237.592 41.233 236.592 42.2399 235.348 42.9768C234.108 43.7114 232.758 44.0839 231.332 44.0839C229.832 44.0839 228.422 43.7099 227.14 42.9731C225.853 42.2333 224.818 41.2257 224.062 39.9766C223.31 38.7386 222.929 37.3732 222.929 35.9185C222.929 34.4185 223.305 33.0179 224.045 31.7549C224.786 30.4912 225.822 29.4771 227.124 28.7388C228.43 27.9997 229.889 27.625 231.46 27.625C232.868 27.625 234.199 27.9997 235.416 28.7388C236.637 29.4822 237.62 30.5074 238.337 31.7864C239.054 33.0662 239.417 34.4558 239.417 35.9185C239.417 37.3769 239.049 38.7452 238.322 39.9862ZM243.063 23.8559L240.095 23.8347H240.09C239.912 23.8347 239.742 23.9042 239.616 24.0301C239.489 24.1567 239.417 24.3293 239.417 24.5086V26.7251C239.192 26.4719 238.96 26.2399 238.721 26.0306C237.782 25.165 236.651 24.4962 235.361 24.0425C234.087 23.594 232.717 23.3671 231.29 23.3671C229.003 23.3671 226.858 23.9328 224.918 25.0464C222.956 26.1491 221.386 27.6741 220.248 29.5802C219.108 31.4915 218.53 33.5952 218.53 35.8336C218.53 37.1727 218.744 38.5242 219.166 39.8515C219.591 41.1877 220.173 42.3467 220.901 43.3038C222.049 44.7673 223.619 45.9864 225.57 46.9266C227.519 47.8662 229.472 48.3418 231.374 48.3418C234.241 48.3418 236.693 47.4871 238.683 45.78C238.937 45.5429 239.181 45.2854 239.417 45.0095V47.1374C239.417 47.5098 239.718 47.8113 240.09 47.8113H243.058C243.43 47.8113 243.731 47.5098 243.731 47.1374V24.5291C243.731 24.1588 243.433 23.8581 243.063 23.8559Z" fill="#98714B"/>
<path d="M257.639 23.3701C256.064 23.4908 254.869 23.7381 253.988 24.1245C253.193 24.4677 252.494 24.9374 251.93 25.5045C251.882 25.5491 251.836 25.5946 251.789 25.6413V24.5306C251.789 24.1589 251.488 23.8574 251.116 23.8574H248.254C247.883 23.8574 247.582 24.1589 247.582 24.5306V47.1601C247.582 47.5325 247.883 47.834 248.254 47.834H251.287C251.657 47.834 251.959 47.5325 251.959 47.1601V34.496C251.959 32.475 252.228 31.5413 252.458 31.103C252.966 30.0991 253.777 29.2378 254.842 28.5587C255.577 28.1395 256.56 27.8607 257.762 27.7297C258.104 27.6924 258.362 27.4034 258.362 27.0595V24.0418C258.362 23.8544 258.284 23.6752 258.146 23.5479C258.01 23.4199 257.824 23.3555 257.639 23.3701Z" fill="#98714B"/>
<path d="M273.453 23.8555H268.867V16.6033C268.867 16.2315 268.566 15.9294 268.194 15.9294H265.162C264.791 15.9294 264.49 16.2315 264.49 16.6033V23.8555H260.433C260.062 23.8555 259.761 24.1576 259.761 24.5294V27.3129C259.761 27.6846 260.062 27.9868 260.433 27.9868H264.49V47.1581C264.49 47.5306 264.791 47.832 265.162 47.832H268.194C268.566 47.832 268.867 47.5306 268.867 47.1581V27.9868H273.453C273.824 27.9868 274.126 27.6846 274.126 27.3129V24.5294C274.126 24.1576 273.824 23.8555 273.453 23.8555Z" fill="#98714B"/>
<path d="M198.41 30.8197C197.612 30.4612 196.47 30.0939 194.927 29.6994C192.605 29.0783 191.047 28.4314 190.292 27.7779C189.45 27.0557 189.042 26.1184 189.042 24.911C189.042 24.0403 189.246 23.2317 189.647 22.5081C190.05 21.7807 190.593 21.2253 191.306 20.8083C192.021 20.3911 192.794 20.1884 193.671 20.1884C195.044 20.1884 196.126 20.5894 196.979 21.4127C197.834 22.238 198.351 23.4264 198.516 24.9425C198.553 25.2842 198.841 25.5433 199.185 25.5433H202.365C202.549 25.5433 202.724 25.4679 202.85 25.3347C202.977 25.2022 203.045 25.0237 203.037 24.84C202.961 23.0927 202.524 21.526 201.737 20.1819C200.941 18.8267 199.844 17.7657 198.474 17.0288C197.115 16.2993 195.57 15.929 193.884 15.929C192.166 15.929 190.589 16.3139 189.193 17.0735C188.103 17.6676 187.188 18.4521 186.453 19.4019C186.573 19.8087 186.624 20.2345 186.589 20.6524C187.166 20.959 187.568 21.4258 187.747 22.0083C188.003 22.8432 187.748 23.7446 187.363 24.2035C187.057 24.5693 186.696 24.8518 186.299 25.0647C186.721 25.9033 186.8 26.9014 186.468 27.7113C186.29 28.1468 185.999 28.4972 185.634 28.7541C185.692 28.8631 185.737 28.9765 185.8 29.0834C186.569 30.3625 187.651 31.3693 189.011 32.0725C189.849 32.5151 190.82 32.8818 191.899 33.162C191.971 33.1877 192.092 33.2264 192.324 33.2872C192.52 33.3384 192.777 33.3999 193.08 33.4686C195.175 34.0064 196.662 34.6394 197.501 35.3499C198.765 36.4153 199.381 37.6987 199.381 39.2749C199.381 40.2334 199.139 41.0947 198.642 41.9084C198.148 42.7169 197.465 43.366 196.612 43.838C195.755 44.3107 194.808 44.5507 193.799 44.5507C192.244 44.5507 190.999 44.0626 189.989 43.0572C188.969 42.0408 188.416 40.7128 188.298 38.9947C188.274 38.6419 187.982 38.3668 187.627 38.3668H184.362C184.178 38.3668 184.003 38.4422 183.875 38.5768C183.748 38.71 183.681 38.89 183.69 39.0744C183.766 40.6286 183.998 41.844 184.395 42.774C184.864 43.9594 185.542 45.0014 186.41 45.8707C187.333 46.7956 188.454 47.5259 189.744 48.0388C191.027 48.5503 192.377 48.8086 193.756 48.8086C195.545 48.8086 197.227 48.3805 198.757 47.5354C200.288 46.6888 201.517 45.518 202.409 44.0567C203.305 42.5889 203.759 40.9586 203.759 39.2112C203.759 36.4753 202.736 34.1564 200.708 32.3074C199.996 31.6854 199.223 31.1849 198.41 30.8197Z" fill="#98714B"/>
<path d="M179.811 23.803C177.787 24.1059 176.042 25.846 175.831 27.4338C175.716 28.6149 176.732 29.8427 177.758 28.7049C177.654 30.0608 180.17 30.7522 180.557 28.6339C180.849 27.0277 179.476 26.2177 179.811 23.803Z" fill="#65A854"/>
<path d="M180.033 23.4141C182.472 21.6616 184.609 20.2852 184.816 18.2737C184.884 17.6151 183.876 16.1597 182.354 17.1541C181.483 15.2677 179.038 15.1836 178.012 17.5149C177.181 19.4064 180.897 21.4647 180.033 23.4141Z" fill="#65A854"/>
<path d="M179.874 23.5642C180.04 23.0915 179.974 22.5405 179.785 21.9529C179.18 20.7324 177.712 19.5331 177.607 18.3301C177.436 18.1999 177.265 18.1011 177.102 18.0403C176.007 17.6847 174.897 18.8277 175.842 20.2516C174.962 20.2846 173.754 20.7141 173.396 21.5314C173 22.4344 173.608 23.8759 174.382 24.2901C175.783 25.0415 178.654 22.4183 179.874 23.5642Z" fill="#65A854"/>
<path d="M186.069 21.1899C186.436 20.0747 185.902 18.8235 185.024 18.233C185.042 18.331 185.041 18.4225 185.034 18.5023C184.852 20.5013 181.834 22.5231 180.166 23.5797C182.163 25.0022 185.579 25.6505 187.117 23.8168C187.514 23.3427 187.85 21.6926 186.069 21.1899Z" fill="#65A854"/>
<path d="M180.008 23.8523C179.799 24.8665 180.229 25.9868 180.743 27.3171C181.227 28.5669 181.925 29.7369 182.774 30.1694C183.347 30.4613 184.858 30.0969 184.706 28.5596C186.452 28.3305 186.642 26.2649 185.693 25.0458C184.057 25.5243 181.967 25.2646 180.008 23.8523Z" fill="#65A854"/>
<path d="M178.227 24.0027C176.839 23.8425 175.79 24.9474 175.458 25.4391C175.226 25.7838 175.036 26.2689 174.935 26.705C175.161 26.9392 175.338 27.1243 175.438 27.4082C175.472 25.4633 176.624 24.2164 178.227 24.0027Z" fill="#65A854"/>
<path d="M177.041 30.8232C176.349 30.2136 175.755 29.359 175.528 28.4129C175.517 28.5058 175.514 28.5907 175.397 28.947C175.302 29.239 175.218 29.4088 175.218 29.4088C175.37 29.749 175.56 30.0695 175.811 30.341C177.262 31.9054 178.448 32.8501 179.394 32.4454C179.754 32.2918 177.768 31.4634 177.041 30.8232Z" fill="#65A854"/>
<path d="M162.625 39.3765C162.674 39.3765 162.698 39.4016 162.694 39.4512C162.65 39.4445 162.629 39.4186 162.625 39.3765Z" fill="#95BC7F"/>
<path d="M162.562 39.3033C162.571 39.3146 162.58 39.3266 162.59 39.3379C162.57 39.3349 162.56 39.3236 162.562 39.3033Z" fill="#95BC7F"/>
<path d="M162.461 39.161C162.469 39.1716 162.477 39.1821 162.485 39.1934C162.467 39.1904 162.457 39.1806 162.461 39.161Z" fill="#95BC7F"/>
<path d="M162.591 39.3401C162.61 39.3454 162.621 39.3574 162.625 39.377C162.604 39.3732 162.592 39.3619 162.591 39.3401Z" fill="#95BC7F"/>
<path d="M165.553 37.3905C165.553 37.3108 165.553 37.231 165.552 37.1512C165.541 36.5307 165.442 35.9234 165.264 35.33C165.089 34.7453 164.855 34.1812 164.639 33.6104C164.482 33.194 164.278 32.7996 164.041 32.4221C163.788 32.0203 163.488 31.6559 163.178 31.2967C162.386 30.379 161.44 29.6693 160.342 29.1614C159.74 28.8827 159.117 28.6676 158.458 28.5673C158.244 28.5344 158.025 28.5161 157.819 28.4575C157.062 28.2424 156.295 28.1385 155.509 28.1663C155.092 28.1817 154.68 28.2299 154.272 28.3097C154.043 28.3544 153.822 28.4356 153.586 28.4524C152.732 28.5125 151.911 28.7144 151.136 29.0795C150.805 29.2347 150.469 29.3598 150.115 29.4542C149.326 29.6635 148.602 30.019 147.933 30.4859C147.579 30.7339 147.248 31.0142 146.945 31.3252C146.514 31.7686 146.134 32.2501 145.83 32.7901C145.756 32.924 145.672 33.0513 145.535 33.1377C145.42 33.2094 145.316 33.3009 145.21 33.3857C144.839 33.6821 144.52 34.0326 144.195 34.3751C144.001 34.5784 143.825 34.795 143.669 35.0277C143.251 35.6519 142.978 36.3383 142.793 37.0619C142.766 37.1651 142.718 37.2493 142.644 37.3224C142.11 37.8515 141.672 38.4515 141.328 39.1225C140.762 40.2311 140.493 41.4062 140.527 42.6531C140.541 43.1236 140.6 43.5853 140.695 44.0449C140.735 44.2351 140.808 44.4158 140.82 44.6119C140.857 45.2624 140.925 45.91 141.048 46.5503C141.241 47.5513 141.551 48.5055 142.14 49.3528C142.322 49.6155 142.531 49.8445 142.808 50.0041C142.971 50.0977 143.126 50.2053 143.278 50.3158C143.496 50.4731 143.724 50.6107 143.965 50.7314C144.423 50.9641 144.893 51.1668 145.394 51.2904C145.675 51.36 145.956 51.4221 146.228 51.5304C146.67 51.7068 147.137 51.6512 147.597 51.6204C147.684 51.6139 147.763 51.6073 147.846 51.6424C148.152 51.7712 148.474 51.8034 148.802 51.7697C148.906 51.7595 149.005 51.769 149.106 51.7909C149.497 51.8766 149.893 51.9219 150.291 51.9417C150.799 51.9658 151.304 51.9314 151.806 51.8466C152.651 51.7039 153.445 51.4214 154.191 50.9977C154.313 50.9282 154.424 50.8324 154.568 50.8046C154.966 50.7263 155.346 50.5902 155.724 50.4416C156.325 50.2053 156.894 49.9075 157.408 49.5131C157.796 49.2145 158.172 48.8984 158.553 48.5911C158.601 48.5516 158.652 48.5121 158.706 48.4813C158.885 48.3796 159.052 48.2618 159.199 48.1155C159.247 48.0679 159.3 48.005 159.366 48.0064C159.448 48.0079 159.492 47.9596 159.543 47.9201C159.744 47.7686 159.936 47.6047 160.142 47.4628C160.405 47.2813 160.655 47.0837 160.897 46.8766C161.412 46.4361 161.803 45.8859 162.228 45.3649C162.618 44.8849 162.878 44.3214 163.234 43.8195C163.439 43.5312 163.587 43.2063 163.8 42.9231C163.969 42.6999 164.115 42.4628 164.256 42.2206C164.595 41.6346 164.841 41.0126 165.006 40.3555C165.052 40.1732 165.08 39.986 165.142 39.8081C165.42 39.0259 165.557 38.2196 165.553 37.3905Z" fill="#65A854"/>
<path d="M165.614 39.7997C165.548 39.9856 165.519 40.1802 165.473 40.3698C165.301 41.0525 165.044 41.6993 164.691 42.3096C164.546 42.5613 164.393 42.8072 164.217 43.0399C163.995 43.334 163.842 43.6721 163.629 43.9721C163.259 44.4938 162.989 45.0806 162.583 45.5789C162.14 46.1212 161.734 46.6934 161.198 47.1514C160.946 47.3673 160.687 47.5722 160.413 47.761C160.198 47.9088 159.999 48.0793 159.791 48.2373C159.737 48.2776 159.106 48.7152 158.919 48.8213C158.862 48.8527 158.811 48.8944 158.76 48.9347C158.363 49.2544 157.973 49.5837 157.568 49.894C157.035 50.3037 156.443 50.614 155.817 50.8598C155.425 51.0142 155.03 51.1555 154.615 51.2367C154.465 51.266 154.35 51.3662 154.223 51.4379C153.448 51.8784 152.621 52.1726 151.743 52.3211C151.221 52.4089 150.695 52.4455 150.167 52.4199C149.753 52.3994 149.341 52.3526 148.935 52.2633C148.83 52.2399 148.727 52.2304 148.619 52.2414C148.277 52.2765 147.942 52.2421 147.623 52.1082C147.537 52.0723 147.455 52.0796 147.366 52.0855C146.886 52.117 146.401 52.1762 145.942 51.9926C145.658 51.8791 145.366 51.8148 145.073 51.7423C144.553 51.6143 144.064 51.4028 143.587 51.1613C143.337 51.0347 143.1 50.8928 142.872 50.7289C142.715 50.6133 142.554 50.502 142.384 50.4047C142.095 50.2386 141.879 50.0001 141.689 49.7271C141.077 48.8461 140.754 47.8539 140.554 46.8119C140.425 46.1461 140.355 45.4729 140.317 44.7968C140.305 44.5926 140.227 44.4038 140.187 44.2062C140.088 43.7292 140.027 43.2484 140.012 42.7589C139.976 41.4623 140.257 40.2403 140.846 39.0863C141.202 38.389 141.658 37.7655 142.214 37.2146C142.292 37.1385 142.341 37.0506 142.368 36.9438C142.561 36.1909 142.845 35.4774 143.28 34.8284C143.442 34.5862 143.625 34.3608 143.826 34.1494C144.165 33.793 144.496 33.4279 144.881 33.1205C144.993 33.0313 145.1 32.9369 145.22 32.8622C145.364 32.7722 145.45 32.6405 145.528 32.5008C145.844 31.9388 146.239 31.4383 146.686 30.9773C147.002 30.6532 147.346 30.3626 147.715 30.1044C148.409 29.6185 149.164 29.249 149.984 29.0309C150.352 28.9328 150.701 28.8033 151.045 28.6409C151.852 28.2618 152.706 28.0511 153.595 27.9889C153.84 27.9721 154.068 27.8872 154.307 27.8411C154.733 27.7577 155.16 27.7072 155.594 27.6919C156.412 27.6625 157.21 27.7709 157.996 27.994C158.211 28.0555 158.439 28.0753 158.662 28.1089C159.347 28.2129 159.995 28.4367 160.622 28.7265C161.763 29.2548 162.747 29.9939 163.57 30.948C163.893 31.3212 164.205 31.7002 164.468 32.1181C164.715 32.5103 164.927 32.9207 165.091 33.3539C165.315 33.9474 165.559 34.5342 165.741 35.1423C165.925 35.7599 166.028 36.3914 166.04 37.0368C166.041 37.1194 166.04 37.2029 166.04 37.2855C166.045 38.1482 165.903 38.9868 165.614 39.7997ZM167.584 37.8058C167.798 37.3755 167.883 36.9174 167.845 36.4397C167.803 35.9165 167.642 35.4269 167.369 34.9799C167.281 34.8357 167.24 34.6967 167.249 34.5299C167.262 34.2855 167.221 34.0455 167.158 33.8083C166.964 33.0788 166.588 32.4547 166.066 31.9168C166.011 31.8598 165.975 31.8027 165.961 31.72C165.904 31.3878 165.775 31.0834 165.589 30.8024C165.234 30.2631 164.748 29.8709 164.191 29.5621C164.089 29.5065 164.037 29.4378 164.003 29.3265C163.811 28.6767 163.419 28.1799 162.833 27.8397C162.491 27.6406 162.124 27.5089 161.733 27.4518C161.604 27.4328 161.502 27.3904 161.42 27.282C161.307 27.1357 161.166 27.015 161.018 26.9045C160.537 26.5452 160.002 26.3799 159.399 26.4501C159.108 26.4845 158.828 26.5591 158.569 26.696C158.482 26.7413 158.422 26.7384 158.345 26.6828C158.204 26.5825 158.05 26.505 157.894 26.4325C157.035 26.0366 156.155 25.9415 155.25 26.2577C155.173 26.2839 155.113 26.2693 155.045 26.2481C154.526 26.0857 153.999 26.0593 153.464 26.1625C152.762 26.2971 152.139 26.6008 151.575 27.0333C151.499 27.0918 151.426 27.1159 151.332 27.113C150.967 27.1006 150.611 27.1577 150.264 27.2674C149.554 27.4928 148.948 27.8901 148.419 28.4082C148.289 28.5355 148.156 28.635 147.977 28.6833C147.806 28.7287 147.642 28.8019 147.479 28.8743C146.524 29.3031 145.744 29.9389 145.19 30.8375C145.149 30.9056 145.092 30.9334 145.026 30.9604C144.643 31.1185 144.301 31.3395 143.996 31.6183C143.451 32.1166 143.058 32.7181 142.787 33.4015C142.752 33.4908 142.705 33.5493 142.618 33.5911C142.36 33.7169 142.133 33.8874 141.928 34.0901C141.397 34.6184 141.07 35.2637 140.869 35.9786C140.84 36.0848 140.796 36.1696 140.71 36.2458C140.39 36.5318 140.114 36.8582 139.892 37.2277C139.605 37.7085 139.415 38.2229 139.392 38.7885C139.388 38.8976 139.356 38.9766 139.286 39.0578C138.963 39.4419 138.69 39.8576 138.544 40.3449C138.409 40.7913 138.394 41.2354 138.607 41.6627C138.653 41.7542 138.647 41.8047 138.585 41.8793C138.297 42.2262 138.201 42.633 138.227 43.0772C138.254 43.5426 138.398 43.9728 138.604 44.3862C138.636 44.4499 138.666 44.5084 138.654 44.5868C138.603 44.8934 138.601 45.2028 138.631 45.5109C138.691 46.1197 138.886 46.6809 139.25 47.1771C139.301 47.248 139.327 47.3117 139.318 47.4031C139.258 48.0668 139.33 48.7093 139.659 49.3027C139.697 49.3715 139.675 49.4279 139.654 49.4879C139.544 49.8018 139.456 50.1223 139.396 50.4501C139.218 51.4247 139.305 52.3694 139.729 53.2702C140.267 54.4146 141.142 55.2349 142.232 55.8422C142.247 55.851 142.266 55.8568 142.282 55.8305C141.796 54.6114 141.804 53.3572 142.05 52.0518C142.244 52.2538 142.461 52.3314 142.683 52.3979C142.979 52.4872 143.281 52.5436 143.589 52.5743C143.711 52.5867 143.808 52.6241 143.894 52.7236C144.112 52.9738 144.392 53.1414 144.702 53.2577C145.151 53.4253 145.615 53.4575 146.087 53.4114C146.182 53.4019 146.256 53.4151 146.337 53.4626C146.68 53.6668 147.041 53.8277 147.436 53.9075C147.899 54.0004 148.346 53.9763 148.752 53.7055C148.819 53.6609 148.871 53.6785 148.934 53.7004C149.277 53.819 149.63 53.8965 149.994 53.9046C150.429 53.9148 150.847 53.8431 151.223 53.6112C151.329 53.546 151.413 53.5343 151.531 53.5782C152.092 53.7912 152.668 53.8095 153.24 53.6331C153.733 53.4809 154.143 53.1882 154.481 52.8004C154.542 52.7309 154.599 52.6972 154.692 52.7002C154.804 52.7038 154.917 52.6936 155.029 52.6819C155.861 52.5962 156.542 52.226 157.064 51.5718C157.147 51.4672 157.232 51.4108 157.365 51.3889C157.85 51.3106 158.31 51.1584 158.718 50.8752C158.995 50.6828 159.23 50.4479 159.356 50.1281C159.397 50.0235 159.455 50.0045 159.553 49.9993C160.102 49.9693 160.577 49.763 160.973 49.3803C161.268 49.0949 161.488 48.7583 161.629 48.3734C161.671 48.2607 161.732 48.2088 161.845 48.1737C162.72 47.9014 163.277 47.3176 163.502 46.427C163.53 46.3122 163.578 46.2434 163.674 46.1812C164.458 45.6726 164.937 44.9606 165.086 44.0328C165.101 43.9436 165.134 43.8843 165.214 43.8367C165.451 43.6992 165.665 43.5294 165.854 43.3303C166.387 42.7728 166.642 42.1091 166.595 41.3379C166.588 41.223 166.608 41.1549 166.697 41.0818C167.164 40.6991 167.452 40.2059 167.579 39.6153C167.691 39.0951 167.672 38.5763 167.557 38.0597C167.536 37.9661 167.543 37.8907 167.584 37.8058Z" fill="#98714B"/>
<path d="M163.953 53.4111C164.02 52.8536 164.12 52.3121 164.237 51.7728C164.616 50.0269 165.155 48.3329 165.898 46.7063C166.083 46.3009 166.28 45.9021 166.492 45.51C166.532 45.436 166.559 45.3599 166.578 45.278C166.846 44.105 167.192 42.9591 167.739 41.8828C167.977 41.4144 168.253 40.9732 168.628 40.6C168.746 40.4829 168.883 40.3871 169.015 40.2758C168.96 40.1741 168.904 40.0768 168.857 39.9759C168.649 39.5375 168.531 39.0714 168.464 38.5936C168.332 37.6497 168.379 36.7094 168.52 35.7706C168.578 35.3828 168.649 34.9971 168.738 34.6159C168.754 34.5443 168.747 34.4761 168.73 34.4052C168.698 34.2808 168.704 34.2764 168.836 34.2844C169.406 34.3225 169.966 34.4118 170.519 34.5545C171.247 34.7425 171.939 35.0176 172.555 35.4596C173.294 35.9901 173.784 36.6882 173.959 37.5919C174.059 38.1055 174.053 38.6221 173.962 39.1343C173.602 41.1671 172.937 43.0967 171.984 44.926C171.17 46.4882 170.162 47.9158 168.982 49.222C167.536 50.823 165.89 52.1848 164.083 53.3555C164.053 53.3753 164.022 53.3928 163.992 53.4111C163.987 53.4133 163.98 53.4111 163.953 53.4111Z" fill="#987149"/>
<path d="M152.714 25.3139C152.862 25.1793 153 25.0673 153.114 24.9297C153.266 24.7453 153.405 24.5536 153.452 24.3114C153.46 24.2712 153.469 24.2302 153.471 24.1885C153.482 23.9382 153.43 23.8856 153.185 23.8987C152.091 23.9587 151.019 23.8468 149.976 23.5036C149.654 23.3982 149.344 23.2629 149.048 23.0975C148.979 23.058 148.91 23.0331 148.829 23.0426C148.527 23.0755 148.225 23.0455 147.924 23.0228C146.999 22.9533 146.096 22.7645 145.218 22.4594C144.865 22.3365 144.514 22.204 144.184 22.0314C144.037 21.9538 143.903 21.9479 143.745 21.9787C143.22 22.0804 142.689 22.1294 142.153 22.0957C141.677 22.0657 141.211 21.9882 140.783 21.7592C140.715 21.7233 140.645 21.6918 140.582 21.626C140.619 21.5682 140.684 21.555 140.739 21.5301C141.696 21.0984 142.673 20.7172 143.662 20.3674C145.128 19.8501 146.616 19.4125 148.137 19.0905C149.008 18.9061 149.884 18.7613 150.769 18.6742C151.442 18.6083 152.117 18.5644 152.792 18.5842C153.977 18.6178 155.142 18.7737 156.254 19.2135C157.339 19.6415 158.255 20.295 158.939 21.2499C159.404 21.9004 159.652 22.6284 159.631 23.4355C159.62 23.8548 159.495 24.2397 159.248 24.5829C159.182 24.6736 159.105 24.7358 159.002 24.779C158.382 25.0366 157.737 25.2136 157.078 25.3439C156.379 25.4815 155.67 25.5466 154.957 25.5488C154.227 25.551 153.502 25.4822 152.785 25.3439C152.768 25.341 152.754 25.3315 152.714 25.3139Z" fill="#987149"/>
<path d="M137.943 39.1379C137.967 39.1862 137.937 39.2214 137.923 39.2586C137.619 40.1133 137.44 40.9943 137.374 41.8995C137.295 42.9927 137.423 44.0566 137.784 45.092C137.829 45.2215 137.829 45.223 137.715 45.3064C137.149 45.7191 136.59 46.1406 136.074 46.6162C135.912 46.7647 135.753 46.9169 135.621 47.0933C135.568 47.1635 135.511 47.1869 135.427 47.1855C135.053 47.1767 134.681 47.1438 134.31 47.105C133.467 47.0157 132.633 46.8672 131.813 46.6447C130.836 46.3798 129.896 46.0228 129.03 45.4915C128.247 45.0101 127.57 44.4144 127.071 43.6322C126.994 43.5122 126.926 43.3871 126.856 43.2627C126.83 43.2173 126.811 43.1683 126.781 43.1046C127.031 43.0249 127.271 42.9466 127.511 42.8712C129.201 42.3363 130.884 41.7824 132.558 41.2043C133.875 40.7492 135.187 40.2823 136.48 39.7628C136.924 39.5843 137.368 39.3984 137.799 39.1877C137.845 39.1658 137.89 39.1372 137.943 39.1379Z" fill="#987149"/>
<path d="M153.235 54.2764C153.157 54.3978 153.097 54.4981 153.03 54.5947C151.574 56.7065 150.145 58.8372 148.802 61.0244C148.255 61.9149 147.72 62.8134 147.253 63.7493C147.051 64.1532 146.861 64.5623 146.745 64.9999C146.692 65.0028 146.687 64.9618 146.672 64.934C145.838 63.39 145.105 61.8015 144.598 60.1163C144.395 59.4438 144.244 58.7604 144.196 58.0579C144.168 57.6291 144.193 57.2033 144.321 56.7884C144.394 56.5528 144.501 56.3347 144.664 56.1496C145.166 55.5781 145.678 55.0176 146.246 54.509C146.346 54.4198 146.433 54.3861 146.576 54.4139C147.415 54.5771 148.263 54.6554 149.118 54.6876C149.611 54.7066 150.102 54.6934 150.594 54.6686C151.328 54.6305 152.056 54.5295 152.776 54.3744C152.919 54.3436 153.063 54.3129 153.235 54.2764Z" fill="#987149"/>
<path d="M173.254 30.5682C173.242 30.5887 173.23 30.6099 173.214 30.6268C172.906 30.9648 172.518 31.1434 172.072 31.2048C171.982 31.1968 171.882 31.2121 171.836 31.1148C171.791 31.0204 171.846 30.9385 171.907 30.8733C172.213 30.5477 172.59 30.3545 173.036 30.3063C173.065 30.3026 173.095 30.3041 173.125 30.3077C173.287 30.3253 173.335 30.4226 173.254 30.5682ZM171.139 26.2539C171.015 26.1551 171.019 26.0608 171.157 25.9737C171.227 25.9283 171.307 25.9034 171.388 25.8866C171.713 25.82 172.036 25.831 172.355 25.9239C172.421 25.9437 172.487 25.9744 172.549 26.0088C172.611 26.0432 172.674 26.0886 172.673 26.1698C172.671 26.2598 172.599 26.3 172.529 26.3352C172.488 26.3564 172.442 26.371 172.397 26.3835C172.241 26.4266 172.083 26.4486 171.923 26.4427C171.72 26.4398 171.522 26.4164 171.329 26.3498C171.261 26.3264 171.197 26.2986 171.139 26.2539ZM174.689 26.8883C174.618 26.8181 174.403 26.6249 174.369 26.5927C174.254 26.483 173.735 26.0454 173.688 26.0125C173.399 25.812 173.097 25.6371 172.777 25.4929C171.55 24.9427 170.272 24.871 168.964 25.0773C168.087 25.2156 167.245 25.4776 166.426 25.8164C165.47 26.2115 164.563 26.701 163.705 27.2798C163.64 27.3245 163.561 27.3581 163.523 27.4335C163.563 27.4928 163.618 27.5198 163.666 27.5535C164.165 27.9011 164.611 28.3094 165.019 28.7601C165.96 29.8036 166.707 30.9773 167.32 32.2395C167.37 32.3427 167.43 32.391 167.543 32.4063C168.44 32.5249 169.332 32.4861 170.21 32.2775C171.185 32.047 172.099 31.6512 172.964 31.1455C173.53 30.8141 174.047 30.4189 174.477 29.9162C174.643 29.7223 174.801 29.5204 174.92 29.2957C174.998 29.1487 175.143 28.7133 175.157 28.6496C175.304 27.9823 175.186 27.3845 174.689 26.8883Z" fill="#987149"/>
<path d="M150.209 32.2031L154.544 28.0915L157.981 31.3235L153.745 33.1602L150.209 32.2031Z" fill="#73C25B"/>
<path d="M153.586 33.1823L157.863 31.2893L158.733 34.1211L153.586 33.1823Z" fill="#9EDCA8"/>
<path d="M148.288 35.957L150.209 32.2025L153.587 33.3418L148.288 35.957Z" fill="#8EC87B"/>
<path d="M144.063 37.9925L148.289 35.9576L145.485 41.4316L144.063 37.9925Z" fill="#9EDCA8"/>
<path d="M140.527 42.6544L144.221 38.2655L145.484 41.322L143.228 45.1328L140.527 42.6544Z" fill="#8EC87B"/>
<path d="M144.063 37.9922L145.099 33.3428L150.209 32.2027L148.289 35.9572L144.063 37.9922Z" fill="#8EC87B"/>
<path d="M157.864 31.2895L161.994 30.2687L162.948 31.2917L162.308 35.1055L158.734 34.2815L157.864 31.2895Z" fill="#8EC87B"/>
<path d="M158.601 28.4117L157.475 31.291L161.993 30.2681L158.601 28.4117Z" fill="#73C25B"/>
<path d="M143.229 45.3969L145.485 41.5861L147.137 46.1074L143.229 45.3969Z" fill="#9EDCA8"/>
<path d="M152.472 47.4451L157.699 44.6323L155.684 48.25L152.472 47.4451Z" fill="#9EDCA8"/>
<path d="M160.49 39.1376L162.575 35.3392L165.405 37.8007L161.816 42.3945L160.49 39.1376Z" fill="#9EDCA8"/>
<path d="M147.413 51.6218C147.558 51.2252 148.236 49.622 148.236 49.622L150.998 51.8574L147.413 51.6218Z" fill="#9EDCA8"/>
<path d="M143.204 50.3047L143.504 45.3655L147.035 46.2172L148.122 49.4003L143.204 50.3047Z" fill="#8EC87B"/>
<path d="M148.765 49.7559L152.291 47.257L155.92 48.25L151.805 51.8457L150.549 51.6342L148.765 49.7559Z" fill="#8EC87B"/>
<path d="M157.864 44.2617L160.491 39.1396L161.575 42.278L157.864 44.2617Z" fill="#8EC87B"/>
<path d="M155.92 48.25L157.7 44.314L161.817 42.394L161.239 46.5348L159.953 47.1758L155.92 48.25Z" fill="#73C25B"/>
<path d="M147.035 46.2153L145.484 41.4305L148.288 35.9564L153.587 33.3413L158.735 34.28L160.491 39.1373L157.7 44.3142L152.471 47.4453L147.035 46.2153Z" fill="#73C25B"/>
<path d="M164.688 40.2785C164.528 40.9187 164.287 41.5246 163.957 42.0961C163.821 42.3332 163.677 42.5637 163.513 42.781C163.305 43.0569 163.162 43.3737 162.963 43.6554C162.617 44.1442 162.363 44.6937 161.983 45.1613C161.825 45.356 161.67 45.5528 161.513 45.7482L161.997 42.4525L165.093 38.7235C165.027 39.0682 164.939 39.4092 164.82 39.7443C164.759 39.9185 164.733 40.1007 164.688 40.2785ZM159.953 47.2065C159.939 47.216 159.926 47.227 159.913 47.2365L156.067 48.0377L157.906 44.5891L161.551 42.5146L160.987 46.3489C160.891 46.4477 160.793 46.545 160.687 46.6358C160.451 46.8377 160.208 47.0302 159.953 47.2065ZM158.554 48.2002C158.502 48.2302 158.453 48.269 158.406 48.307C158.034 48.607 157.669 48.9151 157.29 49.2063C156.791 49.5905 156.238 49.881 155.652 50.1115C155.284 50.2556 154.915 50.3881 154.527 50.4642C154.386 50.492 154.279 50.5856 154.16 50.6537C153.767 50.8769 153.359 51.0561 152.937 51.1996L156.011 48.55L156.376 48.3904L159.138 47.8146C158.938 47.9529 158.664 48.138 158.554 48.2002ZM149.21 51.4271C149.112 51.4052 149.015 51.3957 148.913 51.4066C148.595 51.4388 148.281 51.4074 147.983 51.2815C147.92 51.2552 147.858 51.2552 147.793 51.2581L148.459 50.0112L150.254 51.564C149.903 51.5427 149.554 51.5025 149.21 51.4271ZM146.409 51.1725C146.143 51.0671 145.87 51.0064 145.596 50.9383C145.175 50.8344 144.778 50.6669 144.389 50.4788L148.105 49.7046L148.113 49.7119L147.274 51.2866C146.981 51.2976 146.689 51.2852 146.409 51.1725ZM143.257 49.8027L143.86 45.7021L146.961 46.4287L147.996 49.3L143.831 50.1671C143.734 50.1063 143.63 50.0559 143.536 49.9885C143.446 49.9227 143.351 49.8641 143.257 49.8027ZM142.429 49.0497C141.925 48.3246 141.638 47.516 141.446 46.6694L143.346 45.5879L143.426 45.6055L142.852 49.5078C142.693 49.3746 142.55 49.2246 142.429 49.0497ZM141.144 44.4281C141.133 44.2365 141.061 44.0601 141.023 43.8749C140.999 43.76 140.984 43.6445 140.966 43.5288L143 45.2886L141.352 46.2267C141.243 45.6318 141.179 45.0318 141.144 44.4281ZM141.64 39.0755C141.973 38.4221 142.4 37.8375 142.92 37.3208C142.992 37.2491 143.039 37.1679 143.064 37.0669C143.245 36.3616 143.511 35.692 143.917 35.0847C144.069 34.8571 144.241 34.6464 144.429 34.448C144.45 34.4247 144.473 34.402 144.495 34.3786L143.974 37.926L143.852 38.0767L140.888 41.649C140.971 40.7519 141.221 39.8958 141.64 39.0755ZM145.417 33.4829C145.52 33.4002 145.747 33.2276 145.755 33.2217L150.053 32.3239L150.027 32.3707L148.183 35.8311L144.439 37.7416L145.01 33.8539C145.141 33.7258 145.273 33.5978 145.417 33.4829ZM147.106 31.4743C147.401 31.1706 147.723 30.8984 148.068 30.6562C148.719 30.2011 149.425 29.8543 150.192 29.6501C150.536 29.5587 150.863 29.4365 151.185 29.285C151.941 28.9294 152.739 28.7318 153.571 28.6733C153.614 28.6703 153.656 28.6579 153.697 28.6513L149.875 31.9463L146.139 32.7249C146.416 32.2727 146.736 31.8555 147.106 31.4743ZM155.443 28.3945C156.208 28.3674 156.955 28.4691 157.691 28.6784C157.892 28.7354 158.104 28.7537 158.313 28.7852C158.34 28.7896 158.367 28.7969 158.394 28.8013L157.437 30.5962L154.937 28.4333C155.105 28.4164 155.273 28.401 155.443 28.3945ZM160.148 29.3648C160.632 29.5894 161.082 29.8601 161.507 30.1667L157.836 30.9314L157.807 30.8502L158.849 28.8964C159.295 29.0091 159.727 29.1694 160.148 29.3648ZM162.679 31.208L162.135 34.9054L159.004 34.1715L157.98 31.3287L161.935 30.5055C162.196 30.7221 162.444 30.9562 162.679 31.208ZM163.748 32.5441C163.979 32.9114 164.177 33.2964 164.33 33.7024C164.361 33.7837 164.393 33.8649 164.424 33.9453L162.571 34.9998L163.065 31.6368C163.309 31.9265 163.546 32.2221 163.748 32.5441ZM164.939 35.3789C165.112 35.9569 165.208 36.5488 165.219 37.154C165.22 37.2118 165.22 37.2704 165.219 37.3281L162.89 35.3137L164.579 34.353C164.709 34.6917 164.835 35.0313 164.939 35.3789ZM160.801 39.1568L162.685 35.621L165.204 37.7994C165.202 37.8316 165.202 37.8638 165.2 37.896L161.816 41.9739L160.801 39.1568ZM160.538 39.6485L161.419 42.0932L158.285 43.8764L160.538 39.6485ZM159.163 34.6112L162.324 35.3517L160.597 38.5911L159.163 34.6112ZM150.43 32.5639L153.277 33.2312L148.877 35.4768L150.43 32.5639ZM157.604 31.5036L158.525 34.0588L154.462 33.1068L157.604 31.5036ZM154.501 28.5408L157.457 31.0975L153.816 32.9553L150.329 32.138L154.501 28.5408ZM145.379 42.0397L146.808 46.0028L143.66 45.2645L145.379 42.0397ZM144.442 38.2208L147.831 36.4911L145.438 40.9824L144.442 38.2208ZM140.859 42.5183C140.858 42.4701 140.864 42.4239 140.864 42.3757L144.097 38.4807L145.175 41.4734L143.274 45.0413L140.895 42.983C140.88 42.8285 140.864 42.6742 140.859 42.5183ZM152.29 47.2885L147.287 46.1155L145.641 41.5481L148.525 36.1369L153.922 33.3827L158.683 34.4986L160.335 39.0829L157.56 44.2899L152.29 47.2885ZM152.908 47.4326L157.18 45.0018L155.554 48.0531L152.908 47.4326ZM148.489 49.4515L147.44 46.5414L151.805 47.5643L148.489 49.4515ZM151.837 51.4813C151.5 51.5383 151.161 51.5618 150.82 51.5698L148.764 49.791L152.422 47.7092L155.48 48.4256L151.968 51.4527C151.924 51.4615 151.882 51.4732 151.837 51.4813ZM165.632 37.6852C165.638 37.5557 165.646 37.4269 165.646 37.2967C165.646 37.2154 165.646 37.1357 165.646 37.0545C165.635 36.4288 165.535 35.8157 165.356 35.2171C165.245 34.8484 165.111 34.4876 164.974 34.129L164.818 33.7215C164.787 33.6417 164.756 33.562 164.726 33.4822C164.568 33.0621 164.362 32.6641 164.123 32.2829C163.868 31.8775 163.566 31.5095 163.253 31.1473C163.221 31.1107 163.185 31.0792 163.153 31.0419L162.814 30.6892C162.68 30.5553 162.542 30.4265 162.4 30.3028L162.094 30.0445C161.574 29.6326 161.011 29.2777 160.397 28.993C159.962 28.7911 159.517 28.625 159.055 28.5086L158.6 28.4135C158.566 28.4077 158.532 28.3988 158.497 28.393C158.283 28.3601 158.063 28.3418 157.855 28.2818C157.092 28.0652 156.319 27.9605 155.527 27.9891C155.195 28.0008 154.869 28.0396 154.543 28.0922L154.269 28.1361C154.042 28.1815 153.823 28.2606 153.59 28.2774C152.728 28.3381 151.902 28.5415 151.12 28.9103C150.787 29.067 150.449 29.1935 150.092 29.2879C149.298 29.4994 148.567 29.858 147.894 30.3292C147.537 30.5802 147.204 30.8618 146.898 31.1765C146.464 31.6236 146.082 32.1095 145.776 32.6546C145.743 32.7139 145.706 32.7695 145.666 32.8229L145.436 33.0373C145.336 33.1046 145.243 33.1807 145.149 33.2554C144.981 33.39 144.825 33.5392 144.672 33.6907L144.584 33.7764C144.429 33.9329 144.279 34.0939 144.127 34.2541C143.933 34.459 143.755 34.6778 143.598 34.9127C143.177 35.542 142.902 36.2349 142.715 36.9652C142.688 37.0691 142.64 37.1533 142.566 37.2279C142.027 37.7621 141.585 38.3672 141.24 39.0441C140.734 40.0349 140.478 41.0812 140.447 42.1802L140.47 43.1001C140.499 43.4059 140.539 43.7096 140.602 44.0118C140.641 44.2028 140.716 44.3857 140.727 44.5833C140.763 45.2125 140.83 45.8389 140.945 46.4587L141.039 46.9006C141.237 47.778 141.535 48.6158 142.057 49.3673C142.241 49.6322 142.451 49.8634 142.73 50.0237C142.895 50.1188 143.051 50.2271 143.204 50.3383C143.423 50.4978 143.653 50.6361 143.895 50.7583C144.358 50.9932 144.832 51.1974 145.335 51.3225C145.62 51.3927 145.901 51.4549 146.176 51.5647C146.464 51.6796 146.762 51.6935 147.062 51.6825L147.583 51.654C147.66 51.6496 147.731 51.6459 147.806 51.6774C148.115 51.8069 148.439 51.8398 148.769 51.8062C148.875 51.7959 148.974 51.8054 149.076 51.8274C149.469 51.9145 149.868 51.9598 150.27 51.9796C150.423 51.9869 150.576 51.9781 150.73 51.9752C150.733 52.0015 151.878 51.8874 152.259 51.7842C152.904 51.6093 153.586 51.3759 154.199 51.0269C154.323 50.9574 154.433 50.86 154.579 50.8315C154.981 50.7525 155.363 50.6149 155.744 50.4656C156.35 50.2278 156.922 49.9271 157.439 49.529C157.831 49.2275 158.21 48.9085 158.594 48.5983C158.643 48.5587 158.693 48.5192 158.747 48.4878C158.928 48.3853 159.54 47.9617 159.592 47.9214C159.713 47.8299 159.834 47.7385 159.953 47.6455L160.482 47.2365C160.641 47.115 160.804 46.9987 160.956 46.8684C161.03 46.8048 161.097 46.7345 161.166 46.6672L161.416 46.4126C161.726 46.0716 162.005 45.7013 162.297 45.3428C162.69 44.8591 162.952 44.2899 163.31 43.7842C163.516 43.4922 163.665 43.1645 163.881 42.879C164.05 42.6537 164.198 42.4151 164.339 42.17C164.681 41.5788 164.93 40.951 165.096 40.2887C165.142 40.1043 165.17 39.9155 165.233 39.7356C165.419 39.2094 165.537 38.6716 165.597 38.1235L165.632 37.6852Z" fill="#98714B"/>
</svg>
